<?xml version="1.0" encoding="UTF-8"?>
<!DOCTYPE svg PUBLIC "-//W3C//DTD SVG 1.1//EN" "http://www.w3.org/Graphics/SVG/1.1/DTD/svg11.dtd">
<!-- Creator: CorelDRAW -->
<svg xmlns="http://www.w3.org/2000/svg" xml:space="preserve" width="1735px" height="956px" version="1.1" shape-rendering="geometricPrecision" text-rendering="geometricPrecision" image-rendering="optimizeQuality" fill-rule="evenodd" clip-rule="evenodd"
viewBox="0 0 1721.86 948.27"
 xmlns:xlink="http://www.w3.org/1999/xlink"
 xmlns:xodm="http://www.corel.com/coreldraw/odm/2003">
 <g id="Layer_x0020_1">
  <metadata id="CorelCorpID_0Corel-Layer"/>
  <polygon fill="#8CA9DB" fill-opacity="0.149020" points="0,0 1721.86,0 1721.86,948.27 0,948.27 "/>
  <path fill="none" stroke="#8396B5" stroke-width="33.08" stroke-miterlimit="22.9256" d="M901.23 575.06c-20.78,37.48 -60.26,60.73 -103.12,60.73 -65.11,0 -117.89,-52.78 -117.89,-117.89 0,-65.11 52.78,-117.9 117.89,-117.9 37.02,0 71.88,17.39 94.16,46.95"/>
  <path fill="none" stroke="#8396B5" stroke-width="33.08" stroke-miterlimit="22.9256" d="M833.8 486.05c22.06,31.51 58.11,50.27 96.57,50.27 65.11,0 117.9,-52.78 117.9,-117.9 0,-65.11 -52.79,-117.89 -117.9,-117.89 -39.92,0 -77.13,20.2 -98.88,53.68"/>
 </g>
</svg>
