<?xml version="1.0" encoding="UTF-8"?>
<!DOCTYPE svg PUBLIC "-//W3C//DTD SVG 1.1//EN" "http://www.w3.org/Graphics/SVG/1.1/DTD/svg11.dtd">
<!-- Creator: CorelDRAW -->
<svg xmlns="http://www.w3.org/2000/svg" xml:space="preserve" width="298px" height="76px" version="1.1" shape-rendering="geometricPrecision" text-rendering="geometricPrecision" image-rendering="optimizeQuality" fill-rule="evenodd" clip-rule="evenodd"
viewBox="0 0 281.643 71.927"
 xmlns:xlink="http://www.w3.org/1999/xlink"
 xmlns:xodm="http://www.corel.com/coreldraw/odm/2003">
 <defs>
    <clipPath id="id0" clip-rule="nonzero">
     <path d="M101.609 23.246l-3.575 7.268c-0.481,0.975 0.229,2.115 1.316,2.115l7.122 0c1.085,0 1.795,-1.136 1.32,-2.111l-3.546 -7.268c-0.536,-1.097 -2.098,-1.1 -2.637,-0.004zm-43.059 30.674l-9.467 0c-0.522,0 -1.005,-0.278 -1.268,-0.731l-2.768 -4.794c-0.285,-0.493 -0.889,-0.694 -1.416,-0.477 -2.364,0.975 -4.952,1.51 -7.669,1.51 -2.715,0 -5.306,-0.535 -7.669,-1.51 -0.526,-0.217 -1.131,-0.016 -1.417,0.477l-2.767 4.794c-0.261,0.453 -0.744,0.731 -1.267,0.731l-9.467 0c-1.491,0 -2.421,-1.612 -1.677,-2.904l6.761 -11.712 10.67 -18.482 5.853 -10.135c0.435,-0.755 1.525,-0.755 1.962,0l16.521 28.617 6.762 11.712c0.745,1.292 -0.187,2.904 -1.677,2.904zm-22.587 -53.92c-19.861,0 -35.963,16.102 -35.963,35.963 0,19.862 16.102,35.964 35.963,35.964 19.862,0 35.962,-16.102 35.962,-35.964 0,-19.861 -16.1,-35.963 -35.962,-35.963zm3.362 31.451l-6.725 0c-0.627,0 -1.133,0.508 -1.133,1.133l0 6.726c0,0.627 0.506,1.133 1.133,1.133l6.725 0c0.627,0 1.134,-0.506 1.134,-1.133l0 -6.726c0,-0.625 -0.507,-1.133 -1.134,-1.133zm239.769 23.819l0 4.847 -1.519 0 0 -4.847 -2.549 0 0 -1.335 6.616 0 0 1.335 -2.548 0zm-6.057 4.847l-3.736 -4.059 0 4.059 -1.388 0 0 -6.182 1.399 0 3.725 4.07 0 -4.07 1.399 0 0 6.182 -1.399 0zm-11.989 0l0 -6.182 5.69 0 0 1.336 -4.171 0 0 1.065 2.744 0 0 1.307 -2.744 0 0 1.139 4.235 0 0 1.335 -5.754 0zm-2.879 0l0 -3.754 -2.253 3.069 -2.353 -3.032 0 3.717 -1.52 0 0 -6.182 1.417 0 2.42 3.216 2.399 -3.216 1.353 0 0 6.182 -1.463 0zm-9.284 -4.847l0 4.847 -1.519 0 0 -4.847 -2.549 0 0 -1.335 6.616 0 0 1.335 -2.548 0zm-4.463 3.391c0,0.892 -0.335,1.456 -1.456,1.456l-3.354 0c-0.992,0 -1.447,-0.556 -1.447,-1.4l0 -0.268 1.522 -0.241 0 0.574 3.011 0c0.175,0 0.203,-0.074 0.203,-0.212l0 -0.659c0,-0.157 -0.055,-0.222 -0.231,-0.222l-2.947 0c-1.038,0 -1.418,-0.592 -1.418,-1.352l0 -0.946c0,-1.122 0.5,-1.456 1.454,-1.456l3.169 0c1.179,0 1.494,0.539 1.494,1.381l0 0.242 -1.521 0.249 0 -0.537 -2.844 0c-0.149,0 -0.233,0.037 -0.233,0.233l0 0.638c0,0.14 0.037,0.204 0.213,0.204l2.947 0c1.028,0 1.438,0.574 1.438,1.39l0 0.926zm-12.871 1.456l0 -6.182 5.69 0 0 1.336 -4.17 0 0 1.065 2.743 0 0 1.307 -2.743 0 0 1.139 4.235 0 0 1.335 -5.755 0zm-3.583 0l-1.28 0 -2.937 -6.182 1.761 0 1.927 4.449 1.975 -4.449 1.647 0 -3.093 6.182zm-6.096 0l-3.736 -4.059 0 4.059 -1.387 0 0 -6.182 1.398 0 3.725 4.07 0 -4.07 1.4 0 0 6.182 -1.4 0zm-6.532 0l-1.519 0 0 -6.182 1.519 0 0 6.182zm-9.07 -3.012l3.652 0 0 1.261 -3.652 0 0 -1.261zm-5.64 -1.835l0 4.847 -1.52 0 0 -4.847 -2.55 0 0 -1.335 6.617 0 0 1.335 -2.547 0zm-6.059 4.847l-3.735 -4.059 0 4.059 -1.388 0 0 -6.182 1.398 0 3.725 4.07 0 -4.07 1.399 0 0 6.182 -1.399 0zm-11.988 0l0 -6.182 5.69 0 0 1.336 -4.171 0 0 1.065 2.743 0 0 1.307 -2.743 0 0 1.139 4.235 0 0 1.335 -5.754 0zm-2.879 0l0 -3.754 -2.253 3.069 -2.354 -3.032 0 3.717 -1.519 0 0 -6.182 1.417 0 2.419 3.216 2.4 -3.216 1.352 0 0 6.182 -1.462 0zm-8.719 -4.457c0,-0.26 -0.075,-0.39 -0.361,-0.39l-2.67 0 0 1.502 2.67 0c0.26,0 0.361,-0.12 0.361,-0.343l0 -0.769zm1.519 1.12c0,0.919 -0.556,1.325 -1.325,1.325l-3.225 0 0 2.012 -1.519 0 0 -6.181 4.744 0c0.854,0 1.325,0.472 1.325,1.325l0 1.519zm-12.247 -1.51c-0.186,0 -0.241,0.056 -0.241,0.242l0 3.058c0,0.157 0.038,0.212 0.214,0.212l3.121 0c0.177,0 0.214,-0.055 0.214,-0.212l0 -3.058c0,-0.186 -0.055,-0.242 -0.24,-0.242l-3.068 0zm4.828 3.392c0,0.862 -0.602,1.455 -1.456,1.455l-3.678 0c-0.863,0 -1.455,-0.593 -1.455,-1.455l0 -3.271c0,-0.891 0.566,-1.456 1.455,-1.456l3.678 0c0.854,0 1.456,0.565 1.456,1.456l0 3.271zm-12.592 1.455l0 -6.182 1.519 0 0 4.847 3.968 0 0 1.335 -5.487 0zm-6.874 0l0 -6.182 5.69 0 0 1.336 -4.171 0 0 1.065 2.744 0 0 1.307 -2.744 0 0 1.139 4.237 0 0 1.335 -5.756 0zm-3.584 0l-1.279 0 -2.937 -6.182 1.76 0 1.928 4.449 1.974 -4.449 1.648 0 -3.094 6.182zm-10.164 0l0 -6.182 5.69 0 0 1.336 -4.17 0 0 1.065 2.743 0 0 1.307 -2.743 0 0 1.139 4.236 0 0 1.335 -5.756 0zm-6.419 -1.335l3.337 0c0.176,0 0.212,-0.055 0.212,-0.212l0 -3.059c0,-0.186 -0.055,-0.241 -0.241,-0.241l-3.308 0 0 3.512zm5.069 -0.121c0,0.862 -0.603,1.457 -1.454,1.457l-5.134 0 0 -6.182 5.134 0c0.851,0 1.454,0.564 1.454,1.455l0 3.27zm-12.081 1.456l-3.735 -4.059 0 4.059 -1.388 0 0 -6.182 1.399 0 3.724 4.07 0 -4.07 1.4 0 0 6.182 -1.4 0zm-9.458 -4.643l-1.131 2.299 2.251 0 -1.12 -2.299zm2.222 4.643l-0.536 -1.065 -3.364 0 -0.537 1.065 -1.622 0 3.215 -6.182 1.345 0 3.159 6.182 -1.66 0zm-7.845 -2.187c0,-0.26 -0.075,-0.389 -0.361,-0.389l-2.763 0 0 1.269 2.763 0c0.259,0 0.361,-0.12 0.361,-0.343l0 -0.537zm-0.092 -2.298c0,-0.259 -0.075,-0.39 -0.363,-0.39l-2.669 0 0 1.131 2.669 0c0.261,0 0.363,-0.12 0.363,-0.343l0 -0.398zm1.611 3.095c0,0.816 -0.351,1.39 -1.399,1.39l-4.763 0 0 -6.182 4.551 0c1.093,0 1.519,0.613 1.519,1.363l0 0.667c0,0.445 -0.186,0.667 -0.371,0.806 -0.11,0.074 -0.231,0.121 -0.362,0.14 0.149,0.027 0.288,0.082 0.409,0.157 0.213,0.139 0.416,0.39 0.416,0.862l0 0.797zm-8.94 -3.078c0,-0.258 -0.075,-0.379 -0.361,-0.379l-2.67 0 0 1.261 2.67 0c0.26,0 0.361,-0.131 0.361,-0.353l0 -0.529zm1.519 0.891c0,0.917 -0.556,1.324 -1.325,1.324l-0.426 0 2.428 2.253 -1.964 0 -2.445 -2.253 -0.818 0 0 2.253 -1.519 0 0 -6.182 4.744 0c0.854,0 1.325,0.473 1.325,1.326l0 1.279zm-7.419 2.121c0,0.853 -0.602,1.456 -1.455,1.456l-3.401 0c-0.853,0 -1.456,-0.593 -1.456,-1.456l0 -4.726 1.522 0 0 4.626c0,0.176 0.063,0.221 0.222,0.221l2.816 0c0.176,0 0.232,-0.045 0.232,-0.221l0 -4.626 1.52 0 0 4.726zm171.647 -13.716c-4.673,0 -6.669,-2.532 -6.669,-6.231l0 -17.224c0,-0.81 0.658,-1.468 1.468,-1.468l4.659 0c0.811,0 1.468,0.658 1.468,1.468l0 15.666c0,0.926 0.34,1.17 1.168,1.17l8.803 0c0.811,0 1.468,-0.658 1.468,-1.468l0 -15.368c0,-0.81 0.658,-1.468 1.467,-1.468l4.659 0c0.811,0 1.467,0.658 1.467,1.468l0 21.988c0,0.809 -0.656,1.467 -1.467,1.467l-18.491 0zm-33.358 -26.223c0,0.9 0.8,1.604 1.687,1.45 0.596,-0.107 1.301,-0.15 2.207,-0.15l8.664 0c3.894,0 6.378,2.288 6.378,5.988l0 17.467c0,0.81 -0.658,1.467 -1.469,1.467l-4.657 0c-0.811,0 -1.467,-0.657 -1.467,-1.467l0 -15.764c0,-0.73 -0.391,-1.072 -1.17,-1.072l-7.69 0c-0.505,0 -0.925,0.033 -1.267,0.09 -0.707,0.118 -1.216,0.734 -1.216,1.45l0 15.296c0,0.81 -0.658,1.467 -1.468,1.467l-4.658 0c-0.811,0 -1.468,-0.657 -1.468,-1.467l0 -32.279c0,-0.722 0.523,-1.336 1.236,-1.45l4.657 -0.745c0.892,-0.145 1.701,0.545 1.701,1.448l0 8.271zm-24.093 2.81c0,-1.364 -0.391,-2.046 -1.897,-2.046l-12.553 0c-0.809,0 -1.467,0.657 -1.467,1.47l0 4.95c0,0.811 0.658,1.467 1.467,1.467l12.553 0c1.362,0 1.897,-0.633 1.897,-1.802l0 -4.039zm7.984 5.889c0,4.819 -2.922,6.96 -6.962,6.96l-15.472 0c-0.809,0 -1.467,0.657 -1.467,1.468l0 7.63c0,0.809 -0.657,1.466 -1.468,1.466l-5.048 0c-0.811,0 -1.467,-0.657 -1.467,-1.466l0 -29.533c0,-0.811 0.656,-1.468 1.467,-1.468l21.987 0c4.656,0 8.43,3.773 8.43,8.428l0 6.515zm-63.191 -7.399c4.673,0 6.669,2.532 6.669,6.231l0 17.225c0,0.809 -0.657,1.467 -1.467,1.467l-4.659 0c-0.809,0 -1.467,-0.658 -1.467,-1.467l0 -15.666c0,-0.927 -0.342,-1.171 -1.17,-1.171l-8.704 0c-0.811,0 -1.469,0.658 -1.469,1.468l0 15.369c0,0.809 -0.657,1.467 -1.467,1.467l-4.659 0c-0.81,0 -1.466,-0.658 -1.466,-1.467l0 -21.988c0,-0.81 0.656,-1.468 1.466,-1.468l18.393 0zm-34.819 24.117l-2.011 -3.984c-0.249,-0.495 -0.756,-0.807 -1.31,-0.807l-15.863 0c-0.553,0 -1.061,0.312 -1.311,0.807l-2.008 3.984c-0.25,0.495 -0.758,0.806 -1.311,0.806l-5.197 0c-1.102,0 -1.812,-1.169 -1.303,-2.145l15.365 -29.532c0.252,-0.486 0.754,-0.791 1.301,-0.791l5.27 0c0.553,0 1.057,0.308 1.307,0.799l15.1 29.533c0.499,0.976 -0.21,2.136 -1.307,2.136l-5.412 0c-0.553,0 -1.061,-0.311 -1.31,-0.806z"/>
    </clipPath>
 </defs>
 <g id="Layer_x0020_1">
  <metadata id="CorelCorpID_0Corel-Layer"/>
  <g>
   <g clip-path="url(#id0)">
    <polygon fill="#FDBE61" fill-rule="nonzero" points="280.453,-10.19 280.457,-10.073 -2.12,0.819 -2.125,0.703 "/>
    <polygon id="1" fill="#FDBE60" fill-rule="nonzero" points="280.455,-10.132 280.462,-9.957 -2.116,0.936 -2.122,0.761 "/>
    <polygon id="2" fill="#FDBE60" fill-rule="nonzero" points="280.46,-10.015 280.466,-9.841 -2.111,1.052 -2.118,0.877 "/>
    <polygon id="3" fill="#FDBE5F" fill-rule="nonzero" points="280.464,-9.899 280.471,-9.724 -2.107,1.169 -2.114,0.994 "/>
    <polygon id="4" fill="#FDBD5F" fill-rule="nonzero" points="280.469,-9.782 280.475,-9.608 -2.102,1.285 -2.109,1.11 "/>
    <polygon id="5" fill="#FDBD5E" fill-rule="nonzero" points="280.473,-9.666 280.48,-9.491 -2.098,1.401 -2.105,1.227 "/>
    <polygon id="6" fill="#FDBD5E" fill-rule="nonzero" points="280.478,-9.549 280.484,-9.375 -2.093,1.518 -2.1,1.343 "/>
    <polygon id="7" fill="#FDBD5E" fill-rule="nonzero" points="280.482,-9.433 280.489,-9.258 -2.089,1.635 -2.096,1.46 "/>
    <polygon id="8" fill="#FDBD5E" fill-rule="nonzero" points="280.486,-9.316 280.493,-9.142 -2.085,1.751 -2.091,1.576 "/>
    <polygon id="9" fill="#FDBD5E" fill-rule="nonzero" points="280.491,-9.2 280.498,-9.025 -2.08,1.867 -2.087,1.693 "/>
    <polygon id="10" fill="#FDBC5D" fill-rule="nonzero" points="280.495,-9.083 280.502,-8.909 -2.076,1.984 -2.082,1.809 "/>
    <polygon id="11" fill="#FDBC5D" fill-rule="nonzero" points="280.5,-8.967 280.507,-8.792 -2.071,2.1 -2.078,1.925 "/>
    <polygon id="12" fill="#FDBC5C" fill-rule="nonzero" points="280.504,-8.851 280.511,-8.676 -2.066,2.217 -2.073,2.042 "/>
    <polygon id="13" fill="#FDBC5C" fill-rule="nonzero" points="280.509,-8.734 280.515,-8.559 -2.062,2.333 -2.069,2.159 "/>
    <polygon id="14" fill="#FDBC5C" fill-rule="nonzero" points="280.513,-8.618 280.52,-8.443 -2.057,2.449 -2.064,2.275 "/>
    <polygon id="15" fill="#FDBC5B" fill-rule="nonzero" points="280.518,-8.501 280.525,-8.326 -2.053,2.566 -2.06,2.391 "/>
    <polygon id="16" fill="#FDBB5B" fill-rule="nonzero" points="280.523,-8.385 280.529,-8.21 -2.048,2.683 -2.055,2.508 "/>
    <polygon id="17" fill="#FDBB5A" fill-rule="nonzero" points="280.527,-8.268 280.534,-8.094 -2.044,2.799 -2.051,2.624 "/>
    <polygon id="18" fill="#FDBB5A" fill-rule="nonzero" points="280.531,-8.152 280.538,-7.977 -2.04,2.915 -2.046,2.741 "/>
    <polygon id="19" fill="#FDBB5A" fill-rule="nonzero" points="280.536,-8.035 280.543,-7.861 -2.035,3.032 -2.042,2.857 "/>
    <polygon id="20" fill="#FDBB5A" fill-rule="nonzero" points="280.54,-7.919 280.547,-7.744 -2.031,3.148 -2.037,2.974 "/>
    <polygon id="21" fill="#FDBB5A" fill-rule="nonzero" points="280.545,-7.802 280.552,-7.628 -2.026,3.265 -2.033,3.09 "/>
    <polygon id="22" fill="#FDBB59" fill-rule="nonzero" points="280.549,-7.686 280.556,-7.511 -2.022,3.381 -2.028,3.207 "/>
    <polygon id="23" fill="#FDBB59" fill-rule="nonzero" points="280.554,-7.57 280.56,-7.395 -2.017,3.498 -2.024,3.323 "/>
    <polygon id="24" fill="#FDBB58" fill-rule="nonzero" points="280.558,-7.453 280.565,-7.278 -2.013,3.614 -2.019,3.439 "/>
    <polygon id="25" fill="#FDBB58" fill-rule="nonzero" points="280.563,-7.336 280.569,-7.162 -2.008,3.731 -2.015,3.556 "/>
    <polygon id="26" fill="#FDBB57" fill-rule="nonzero" points="280.567,-7.22 280.574,-7.046 -2.003,3.847 -2.01,3.672 "/>
    <polygon id="27" fill="#FDBA57" fill-rule="nonzero" points="280.572,-7.104 280.578,-6.929 -1.999,3.963 -2.006,3.789 "/>
    <polygon id="28" fill="#FDBA57" fill-rule="nonzero" points="280.576,-6.987 280.583,-6.812 -1.995,4.08 -2.001,3.905 "/>
    <polygon id="29" fill="#FDBA56" fill-rule="nonzero" points="280.581,-6.871 280.588,-6.696 -1.99,4.196 -1.997,4.022 "/>
    <polygon id="30" fill="#FDBA56" fill-rule="nonzero" points="280.585,-6.754 280.592,-6.58 -1.986,4.313 -1.992,4.138 "/>
    <polygon id="31" fill="#FDBA56" fill-rule="nonzero" points="280.59,-6.638 280.597,-6.463 -1.981,4.429 -1.988,4.255 "/>
    <polygon id="32" fill="#FDBA56" fill-rule="nonzero" points="280.594,-6.522 280.601,-6.347 -1.977,4.546 -1.983,4.371 "/>
    <polygon id="33" fill="#FCB955" fill-rule="nonzero" points="280.599,-6.405 280.605,-6.23 -1.972,4.662 -1.979,4.487 "/>
    <polygon id="34" fill="#FCB955" fill-rule="nonzero" points="280.603,-6.288 280.61,-6.114 -1.968,4.779 -1.974,4.604 "/>
    <polygon id="35" fill="#FCB955" fill-rule="nonzero" points="280.608,-6.172 280.614,-5.997 -1.963,4.895 -1.97,4.721 "/>
    <polygon id="36" fill="#FCB954" fill-rule="nonzero" points="280.612,-6.056 280.619,-5.881 -1.959,5.011 -1.965,4.837 "/>
    <polygon id="37" fill="#FCB954" fill-rule="nonzero" points="280.617,-5.939 280.623,-5.764 -1.954,5.128 -1.961,4.953 "/>
    <polygon id="38" fill="#FCB953" fill-rule="nonzero" points="280.621,-5.823 280.628,-5.648 -1.95,5.245 -1.957,5.07 "/>
    <polygon id="39" fill="#FCB853" fill-rule="nonzero" points="280.626,-5.706 280.632,-5.532 -1.945,5.361 -1.952,5.186 "/>
    <polygon id="40" fill="#FCB852" fill-rule="nonzero" points="280.63,-5.59 280.637,-5.415 -1.941,5.477 -1.948,5.303 "/>
    <polygon id="41" fill="#FCB852" fill-rule="nonzero" points="280.634,-5.473 280.641,-5.299 -1.936,5.594 -1.943,5.419 "/>
    <polygon id="42" fill="#FCB852" fill-rule="nonzero" points="280.639,-5.357 280.646,-5.182 -1.932,5.71 -1.938,5.535 "/>
    <polygon id="43" fill="#FCB853" fill-rule="nonzero" points="280.643,-5.24 280.65,-5.066 -1.927,5.827 -1.934,5.652 "/>
    <polygon id="44" fill="#FCB953" fill-rule="nonzero" points="280.648,-5.124 280.655,-4.949 -1.923,5.943 -1.929,5.769 "/>
    <polygon id="45" fill="#FCB954" fill-rule="nonzero" points="280.653,-5.008 280.659,-4.833 -1.918,6.06 -1.925,5.885 "/>
    <polygon id="46" fill="#FCB954" fill-rule="nonzero" points="280.657,-4.891 280.664,-4.716 -1.914,6.176 -1.92,6.001 "/>
    <polygon id="47" fill="#FCB955" fill-rule="nonzero" points="280.662,-4.775 280.668,-4.6 -1.909,6.293 -1.916,6.118 "/>
    <polygon id="48" fill="#FCB955" fill-rule="nonzero" points="280.666,-4.658 280.673,-4.484 -1.905,6.409 -1.912,6.234 "/>
    <polygon id="49" fill="#FCB955" fill-rule="nonzero" points="280.671,-4.542 280.677,-4.367 -1.9,6.525 -1.907,6.351 "/>
    <polygon id="50" fill="#FDBA56" fill-rule="nonzero" points="280.675,-4.425 280.682,-4.25 -1.896,6.642 -1.903,6.467 "/>
    <polygon id="51" fill="#FDBA56" fill-rule="nonzero" points="280.679,-4.309 280.686,-4.134 -1.891,6.758 -1.898,6.584 "/>
    <polygon id="52" fill="#FDBA56" fill-rule="nonzero" points="280.684,-4.192 280.691,-4.018 -1.887,6.875 -1.894,6.7 "/>
    <polygon id="53" fill="#FDBA56" fill-rule="nonzero" points="280.688,-4.076 280.695,-3.901 -1.883,6.991 -1.889,6.817 "/>
    <polygon id="54" fill="#FDBA57" fill-rule="nonzero" points="280.693,-3.96 280.7,-3.785 -1.878,7.108 -1.885,6.933 "/>
    <polygon id="55" fill="#FDBA57" fill-rule="nonzero" points="280.697,-3.843 280.704,-3.668 -1.873,7.224 -1.88,7.049 "/>
    <polygon id="56" fill="#FDBB57" fill-rule="nonzero" points="280.702,-3.726 280.708,-3.552 -1.869,7.341 -1.875,7.166 "/>
    <polygon id="57" fill="#FDBB58" fill-rule="nonzero" points="280.706,-3.61 280.713,-3.436 -1.864,7.457 -1.871,7.282 "/>
    <polygon id="58" fill="#FDBB58" fill-rule="nonzero" points="280.711,-3.494 280.718,-3.319 -1.86,7.573 -1.867,7.399 "/>
    <polygon id="59" fill="#FDBB59" fill-rule="nonzero" points="280.716,-3.377 280.722,-3.202 -1.855,7.69 -1.862,7.515 "/>
    <polygon id="60" fill="#FDBB59" fill-rule="nonzero" points="280.72,-3.261 280.727,-3.086 -1.851,7.807 -1.858,7.632 "/>
    <polygon id="61" fill="#FDBB5A" fill-rule="nonzero" points="280.724,-3.144 280.731,-2.97 -1.846,7.923 -1.853,7.748 "/>
    <polygon id="62" fill="#FDBB5A" fill-rule="nonzero" points="280.729,-3.028 280.736,-2.853 -1.842,8.039 -1.849,7.865 "/>
    <polygon id="63" fill="#FDBB5A" fill-rule="nonzero" points="280.733,-2.911 280.74,-2.737 -1.838,8.156 -1.844,7.981 "/>
    <polygon id="64" fill="#FDBB5A" fill-rule="nonzero" points="280.738,-2.795 280.745,-2.62 -1.833,8.272 -1.84,8.097 "/>
    <polygon id="65" fill="#FDBB5A" fill-rule="nonzero" points="280.742,-2.678 280.749,-2.504 -1.829,8.389 -1.835,8.214 "/>
    <polygon id="66" fill="#FDBB5B" fill-rule="nonzero" points="280.747,-2.562 280.753,-2.387 -1.824,8.505 -1.831,8.331 "/>
    <polygon id="67" fill="#FDBC5B" fill-rule="nonzero" points="280.751,-2.446 280.758,-2.271 -1.82,8.622 -1.826,8.447 "/>
    <polygon id="68" fill="#FDBC5C" fill-rule="nonzero" points="280.756,-2.329 280.762,-2.154 -1.815,8.738 -1.822,8.563 "/>
    <polygon id="69" fill="#FDBC5C" fill-rule="nonzero" points="280.76,-2.213 280.767,-2.038 -1.81,8.855 -1.817,8.68 "/>
    <polygon id="70" fill="#FDBC5C" fill-rule="nonzero" points="280.765,-2.096 280.771,-1.922 -1.806,8.971 -1.813,8.796 "/>
    <polygon id="71" fill="#FDBC5D" fill-rule="nonzero" points="280.769,-1.98 280.776,-1.805 -1.801,9.087 -1.808,8.913 "/>
    <polygon id="72" fill="#FDBC5D" fill-rule="nonzero" points="280.774,-1.863 280.781,-1.689 -1.797,9.204 -1.804,9.029 "/>
    <polygon id="73" fill="#FDBD5E" fill-rule="nonzero" points="280.778,-1.747 280.785,-1.572 -1.793,9.32 -1.799,9.146 "/>
    <polygon id="74" fill="#FDBD5E" fill-rule="nonzero" points="280.783,-1.63 280.79,-1.456 -1.788,9.437 -1.795,9.262 "/>
    <polygon id="75" fill="#FDBD5E" fill-rule="nonzero" points="280.787,-1.514 280.794,-1.339 -1.784,9.553 -1.79,9.379 "/>
    <polygon id="76" fill="#FDBD5E" fill-rule="nonzero" points="280.792,-1.398 280.798,-1.223 -1.779,9.67 -1.786,9.495 "/>
    <polygon id="77" fill="#FDBD5E" fill-rule="nonzero" points="280.796,-1.281 280.803,-1.106 -1.775,9.786 -1.781,9.611 "/>
    <polygon id="78" fill="#FDBD5F" fill-rule="nonzero" points="280.801,-1.164 280.807,-0.99 -1.77,9.903 -1.777,9.728 "/>
    <polygon id="79" fill="#FDBE5F" fill-rule="nonzero" points="280.805,-1.048 280.812,-0.874 -1.766,10.019 -1.772,9.844 "/>
    <polygon id="80" fill="#FDBE60" fill-rule="nonzero" points="280.81,-0.932 280.816,-0.757 -1.761,10.135 -1.768,9.961 "/>
    <polygon id="81" fill="#FDBE60" fill-rule="nonzero" points="280.814,-0.815 280.821,-0.64 -1.757,10.252 -1.764,10.077 "/>
    <polygon id="82" fill="#FDBE61" fill-rule="nonzero" points="280.819,-0.699 280.825,-0.524 -1.752,10.369 -1.759,10.194 "/>
    <polygon id="83" fill="#FDBE61" fill-rule="nonzero" points="280.823,-0.582 280.83,-0.408 -1.748,10.485 -1.755,10.31 "/>
    <polygon id="84" fill="#FDBE61" fill-rule="nonzero" points="280.827,-0.466 280.834,-0.291 -1.743,10.601 -1.75,10.427 "/>
    <polygon id="85" fill="#FDBE62" fill-rule="nonzero" points="280.832,-0.349 280.839,-0.175 -1.739,10.718 -1.745,10.543 "/>
    <polygon id="86" fill="#FDBE62" fill-rule="nonzero" points="280.836,-0.233 280.843,-0.058 -1.734,10.834 -1.741,10.659 "/>
    <polygon id="87" fill="#FDBF62" fill-rule="nonzero" points="280.841,-0.116 280.848,0.058 -1.73,10.951 -1.736,10.776 "/>
    <polygon id="88" fill="#FDBF62" fill-rule="nonzero" points="280.846,0 280.852,0.175 -1.725,11.067 -1.732,10.893 "/>
    <polygon id="89" fill="#FDBF63" fill-rule="nonzero" points="280.85,0.116 280.857,0.291 -1.721,11.183 -1.727,11.009 "/>
    <polygon id="90" fill="#FDBF63" fill-rule="nonzero" points="280.855,0.233 280.861,0.408 -1.716,11.3 -1.723,11.125 "/>
    <polygon id="91" fill="#FDBF63" fill-rule="nonzero" points="280.859,0.349 280.866,0.524 -1.712,11.417 -1.719,11.242 "/>
    <polygon id="92" fill="#FDBF64" fill-rule="nonzero" points="280.864,0.466 280.87,0.64 -1.707,11.533 -1.714,11.358 "/>
    <polygon id="93" fill="#FDBF64" fill-rule="nonzero" points="280.868,0.582 280.875,0.757 -1.703,11.649 -1.71,11.475 "/>
    <polygon id="94" fill="#FDBF65" fill-rule="nonzero" points="280.872,0.699 280.879,0.873 -1.698,11.766 -1.705,11.591 "/>
    <polygon id="95" fill="#FDBF65" fill-rule="nonzero" points="280.877,0.815 280.884,0.99 -1.694,11.882 -1.701,11.708 "/>
    <polygon id="96" fill="#FDC066" fill-rule="nonzero" points="280.881,0.932 280.888,1.106 -1.69,11.999 -1.696,11.824 "/>
    <polygon id="97" fill="#FDC066" fill-rule="nonzero" points="280.886,1.048 280.893,1.223 -1.685,12.115 -1.692,11.941 "/>
    <polygon id="98" fill="#FDC066" fill-rule="nonzero" points="280.89,1.164 280.897,1.339 -1.68,12.232 -1.687,12.057 "/>
    <polygon id="99" fill="#FDC067" fill-rule="nonzero" points="280.895,1.281 280.901,1.456 -1.676,12.348 -1.682,12.173 "/>
    <polygon id="100" fill="#FDC067" fill-rule="nonzero" points="280.899,1.398 280.906,1.572 -1.671,12.465 -1.678,12.29 "/>
    <polygon id="101" fill="#FDC067" fill-rule="nonzero" points="280.904,1.514 280.911,1.688 -1.667,12.581 -1.674,12.406 "/>
    <polygon id="102" fill="#FDC167" fill-rule="nonzero" points="280.909,1.63 280.915,1.805 -1.662,12.697 -1.669,12.523 "/>
    <polygon id="103" fill="#FDC168" fill-rule="nonzero" points="280.913,1.747 280.92,1.922 -1.658,12.814 -1.665,12.639 "/>
    <polygon id="104" fill="#FDC168" fill-rule="nonzero" points="280.917,1.863 280.924,2.038 -1.653,12.93 -1.66,12.756 "/>
    <polygon id="105" fill="#FDC168" fill-rule="nonzero" points="280.922,1.98 280.929,2.154 -1.649,13.047 -1.656,12.872 "/>
    <polygon id="106" fill="#FDC169" fill-rule="nonzero" points="280.926,2.096 280.933,2.271 -1.645,13.163 -1.651,12.989 "/>
    <polygon id="107" fill="#FDC269" fill-rule="nonzero" points="280.931,2.212 280.938,2.387 -1.64,13.28 -1.647,13.105 "/>
    <polygon id="108" fill="#FDC26A" fill-rule="nonzero" points="280.935,2.329 280.942,2.504 -1.636,13.396 -1.642,13.221 "/>
    <polygon id="109" fill="#FDC26A" fill-rule="nonzero" points="280.94,2.446 280.946,2.62 -1.631,13.513 -1.638,13.338 "/>
    <polygon id="110" fill="#FDC26B" fill-rule="nonzero" points="280.944,2.562 280.951,2.737 -1.627,13.629 -1.633,13.455 "/>
    <polygon id="111" fill="#FDC26B" fill-rule="nonzero" points="280.949,2.678 280.955,2.853 -1.622,13.745 -1.629,13.571 "/>
    <polygon id="112" fill="#FDC26B" fill-rule="nonzero" points="280.953,2.795 280.96,2.97 -1.617,13.862 -1.624,13.687 "/>
    <polygon id="113" fill="#FDC26C" fill-rule="nonzero" points="280.958,2.911 280.964,3.086 -1.613,13.979 -1.62,13.804 "/>
    <polygon id="114" fill="#FDC26C" fill-rule="nonzero" points="280.962,3.028 280.969,3.202 -1.608,14.095 -1.615,13.92 "/>
    <polygon id="115" fill="#FDC26C" fill-rule="nonzero" points="280.967,3.144 280.974,3.319 -1.604,14.211 -1.611,14.037 "/>
    <polygon id="116" fill="#FDC26C" fill-rule="nonzero" points="280.971,3.261 280.978,3.435 -1.6,14.328 -1.606,14.153 "/>
    <polygon id="117" fill="#FDC36D" fill-rule="nonzero" points="280.976,3.377 280.983,3.552 -1.595,14.444 -1.602,14.269 "/>
    <polygon id="118" fill="#FDC36D" fill-rule="nonzero" points="280.98,3.494 280.987,3.668 -1.591,14.561 -1.597,14.386 "/>
    <polygon id="119" fill="#FEC36D" fill-rule="nonzero" points="280.985,3.61 280.991,3.785 -1.586,14.677 -1.593,14.503 "/>
    <polygon id="120" fill="#FDC36E" fill-rule="nonzero" points="280.989,3.726 280.996,3.901 -1.582,14.794 -1.588,14.619 "/>
    <polygon id="121" fill="#FDC36E" fill-rule="nonzero" points="280.994,3.843 281,4.018 -1.577,14.91 -1.584,14.735 "/>
    <polygon id="122" fill="#FDC36F" fill-rule="nonzero" points="280.998,3.959 281.005,4.134 -1.573,15.027 -1.579,14.852 "/>
    <polygon id="123" fill="#FDC36F" fill-rule="nonzero" points="281.003,4.076 281.009,4.25 -1.568,15.143 -1.575,14.968 "/>
    <polygon id="124" fill="#FEC46F" fill-rule="nonzero" points="281.007,4.192 281.014,4.367 -1.564,15.259 -1.571,15.085 "/>
    <polygon id="125" fill="#FEC46F" fill-rule="nonzero" points="281.012,4.309 281.018,4.484 -1.559,15.376 -1.566,15.201 "/>
    <polygon id="126" fill="#FEC46F" fill-rule="nonzero" points="281.016,4.425 281.023,4.6 -1.555,15.492 -1.562,15.318 "/>
    <polygon id="127" fill="#FEC470" fill-rule="nonzero" points="281.02,4.542 281.027,4.716 -1.55,15.609 -1.557,15.434 "/>
    <polygon id="128" fill="#FEC470" fill-rule="nonzero" points="281.025,4.658 281.032,4.833 -1.546,15.725 -1.552,15.551 "/>
    <polygon id="129" fill="#FEC471" fill-rule="nonzero" points="281.029,4.774 281.036,4.949 -1.541,15.842 -1.548,15.667 "/>
    <polygon id="130" fill="#FEC571" fill-rule="nonzero" points="281.034,4.891 281.041,5.066 -1.537,15.958 -1.543,15.783 "/>
    <polygon id="131" fill="#FEC572" fill-rule="nonzero" points="281.039,5.008 281.045,5.182 -1.532,16.075 -1.539,15.9 "/>
    <polygon id="132" fill="#FEC572" fill-rule="nonzero" points="281.043,5.124 281.05,5.298 -1.528,16.191 -1.534,16.016 "/>
    <polygon id="133" fill="#FEC572" fill-rule="nonzero" points="281.048,5.24 281.054,5.415 -1.523,16.307 -1.53,16.133 "/>
    <polygon id="134" fill="#FEC572" fill-rule="nonzero" points="281.052,5.357 281.059,5.532 -1.519,16.424 -1.526,16.249 "/>
    <polygon id="135" fill="#FEC572" fill-rule="nonzero" points="281.057,5.473 281.063,5.648 -1.514,16.541 -1.521,16.366 "/>
    <polygon id="136" fill="#FEC673" fill-rule="nonzero" points="281.061,5.59 281.068,5.764 -1.51,16.657 -1.517,16.482 "/>
    <polygon id="137" fill="#FEC673" fill-rule="nonzero" points="281.065,5.706 281.072,5.881 -1.505,16.773 -1.512,16.599 "/>
    <polygon id="138" fill="#FEC674" fill-rule="nonzero" points="281.07,5.823 281.077,5.997 -1.501,16.89 -1.508,16.715 "/>
    <polygon id="139" fill="#FEC674" fill-rule="nonzero" points="281.074,5.939 281.081,6.114 -1.496,17.006 -1.503,16.832 "/>
    <polygon id="140" fill="#FEC674" fill-rule="nonzero" points="281.079,6.056 281.086,6.23 -1.492,17.123 -1.499,16.948 "/>
    <polygon id="141" fill="#FEC675" fill-rule="nonzero" points="281.083,6.172 281.09,6.347 -1.487,17.239 -1.494,17.065 "/>
    <polygon id="142" fill="#FEC675" fill-rule="nonzero" points="281.088,6.288 281.094,6.463 -1.483,17.356 -1.489,17.181 "/>
    <polygon id="143" fill="#FEC675" fill-rule="nonzero" points="281.092,6.405 281.099,6.58 -1.478,17.472 -1.485,17.297 "/>
    <polygon id="144" fill="#FEC675" fill-rule="nonzero" points="281.097,6.521 281.104,6.696 -1.474,17.589 -1.481,17.414 "/>
    <polygon id="145" fill="#FEC776" fill-rule="nonzero" points="281.102,6.638 281.108,6.812 -1.469,17.705 -1.476,17.53 "/>
    <polygon id="146" fill="#FEC776" fill-rule="nonzero" points="281.106,6.754 281.113,6.929 -1.465,17.822 -1.472,17.647 "/>
    <polygon id="147" fill="#FEC776" fill-rule="nonzero" points="281.11,6.871 281.117,7.045 -1.46,17.938 -1.467,17.763 "/>
    <polygon id="148" fill="#FEC777" fill-rule="nonzero" points="281.115,6.987 281.122,7.162 -1.456,18.054 -1.463,17.88 "/>
    <polygon id="149" fill="#FEC777" fill-rule="nonzero" points="281.119,7.104 281.126,7.278 -1.452,18.171 -1.458,17.996 "/>
    <polygon id="150" fill="#FEC778" fill-rule="nonzero" points="281.124,7.22 281.131,7.395 -1.447,18.287 -1.454,18.113 "/>
    <polygon id="151" fill="#FEC778" fill-rule="nonzero" points="281.128,7.336 281.135,7.511 -1.443,18.404 -1.449,18.229 "/>
    <polygon id="152" fill="#FEC778" fill-rule="nonzero" points="281.133,7.453 281.139,7.628 -1.438,18.52 -1.445,18.346 "/>
    <polygon id="153" fill="#FEC878" fill-rule="nonzero" points="281.137,7.57 281.144,7.744 -1.434,18.637 -1.44,18.462 "/>
    <polygon id="154" fill="#FEC878" fill-rule="nonzero" points="281.142,7.686 281.148,7.861 -1.429,18.753 -1.436,18.578 "/>
    <polygon id="155" fill="#FEC879" fill-rule="nonzero" points="281.146,7.802 281.153,7.977 -1.424,18.87 -1.431,18.695 "/>
    <polygon id="156" fill="#FEC879" fill-rule="nonzero" points="281.151,7.919 281.157,8.094 -1.42,18.986 -1.427,18.812 "/>
    <polygon id="157" fill="#FEC87A" fill-rule="nonzero" points="281.155,8.035 281.162,8.21 -1.415,19.102 -1.422,18.928 "/>
    <polygon id="158" fill="#FEC87A" fill-rule="nonzero" points="281.16,8.152 281.167,8.326 -1.411,19.219 -1.418,19.044 "/>
    <polygon id="159" fill="#FEC97B" fill-rule="nonzero" points="281.164,8.268 281.171,8.443 -1.407,19.336 -1.413,19.161 "/>
    <polygon id="160" fill="#FEC97B" fill-rule="nonzero" points="281.169,8.385 281.176,8.559 -1.402,19.452 -1.409,19.277 "/>
    <polygon id="161" fill="#FEC97B" fill-rule="nonzero" points="281.173,8.501 281.18,8.676 -1.398,19.568 -1.404,19.394 "/>
    <polygon id="162" fill="#FEC97B" fill-rule="nonzero" points="281.178,8.618 281.184,8.792 -1.393,19.685 -1.4,19.51 "/>
    <polygon id="163" fill="#FEC97B" fill-rule="nonzero" points="281.182,8.734 281.189,8.909 -1.389,19.801 -1.395,19.627 "/>
    <polygon id="164" fill="#FECA7C" fill-rule="nonzero" points="281.187,8.851 281.193,9.025 -1.384,19.918 -1.391,19.743 "/>
    <polygon id="165" fill="#FECA7C" fill-rule="nonzero" points="281.191,8.967 281.198,9.142 -1.38,20.034 -1.386,19.86 "/>
    <polygon id="166" fill="#FECA7D" fill-rule="nonzero" points="281.196,9.083 281.202,9.258 -1.375,20.151 -1.382,19.976 "/>
    <polygon id="167" fill="#FECA7D" fill-rule="nonzero" points="281.2,9.2 281.207,9.375 -1.371,20.267 -1.378,20.092 "/>
    <polygon id="168" fill="#FECA7D" fill-rule="nonzero" points="281.205,9.316 281.211,9.491 -1.366,20.384 -1.373,20.209 "/>
    <polygon id="169" fill="#FECA7E" fill-rule="nonzero" points="281.209,9.433 281.216,9.607 -1.362,20.5 -1.368,20.325 "/>
    <polygon id="170" fill="#FECA7E" fill-rule="nonzero" points="281.213,9.549 281.22,9.724 -1.357,20.616 -1.364,20.442 "/>
    <polygon id="171" fill="#FECB7F" fill-rule="nonzero" points="281.218,9.666 281.225,9.841 -1.353,20.733 -1.359,20.558 "/>
    <polygon id="172" fill="#FECB7F" fill-rule="nonzero" points="281.222,9.782 281.229,9.957 -1.348,20.849 -1.355,20.675 "/>
    <polygon id="173" fill="#FECB7F" fill-rule="nonzero" points="281.227,9.899 281.234,10.073 -1.344,20.966 -1.35,20.791 "/>
    <polygon id="174" fill="#FECB7F" fill-rule="nonzero" points="281.232,10.015 281.238,10.19 -1.339,21.082 -1.346,20.908 "/>
    <polygon id="175" fill="#FECB7F" fill-rule="nonzero" points="281.236,10.131 281.243,10.306 -1.335,21.199 -1.341,21.024 "/>
    <polygon id="176" fill="#FECB80" fill-rule="nonzero" points="281.241,10.248 281.247,10.423 -1.33,21.315 -1.337,21.14 "/>
    <polygon id="177" fill="#FECB80" fill-rule="nonzero" points="281.245,10.365 281.252,10.539 -1.326,21.432 -1.333,21.257 "/>
    <polygon id="178" fill="#FECB81" fill-rule="nonzero" points="281.25,10.481 281.256,10.656 -1.321,21.548 -1.328,21.374 "/>
    <polygon id="179" fill="#FECB81" fill-rule="nonzero" points="281.254,10.597 281.261,10.772 -1.317,21.664 -1.324,21.49 "/>
    <polygon id="180" fill="#FECB81" fill-rule="nonzero" points="281.258,10.714 281.265,10.889 -1.312,21.781 -1.319,21.606 "/>
    <polygon id="181" fill="#FECB81" fill-rule="nonzero" points="281.263,10.83 281.27,11.005 -1.308,21.898 -1.315,21.723 "/>
    <polygon id="182" fill="#FECC82" fill-rule="nonzero" points="281.267,10.947 281.274,11.121 -1.303,22.014 -1.31,21.839 "/>
    <polygon id="183" fill="#FECC82" fill-rule="nonzero" points="281.272,11.063 281.279,11.238 -1.299,22.13 -1.306,21.956 "/>
    <polygon id="184" fill="#FECC82" fill-rule="nonzero" points="281.276,11.18 281.283,11.354 -1.294,22.247 -1.301,22.072 "/>
    <polygon id="185" fill="#FECC83" fill-rule="nonzero" points="281.281,11.296 281.288,11.471 -1.29,22.363 -1.296,22.188 "/>
    <polygon id="186" fill="#FECC83" fill-rule="nonzero" points="281.285,11.413 281.292,11.587 -1.285,22.48 -1.292,22.305 "/>
    <polygon id="187" fill="#FECD84" fill-rule="nonzero" points="281.29,11.529 281.297,11.704 -1.281,22.596 -1.288,22.422 "/>
    <polygon id="188" fill="#FECD84" fill-rule="nonzero" points="281.295,11.645 281.301,11.82 -1.276,22.713 -1.283,22.538 "/>
    <polygon id="189" fill="#FECD84" fill-rule="nonzero" points="281.299,11.762 281.306,11.937 -1.272,22.829 -1.279,22.654 "/>
    <polygon id="190" fill="#FECD84" fill-rule="nonzero" points="281.303,11.878 281.31,12.053 -1.267,22.946 -1.274,22.771 "/>
    <polygon id="191" fill="#FECD84" fill-rule="nonzero" points="281.308,11.995 281.315,12.169 -1.263,23.062 -1.27,22.887 "/>
    <polygon id="192" fill="#FECD85" fill-rule="nonzero" points="281.312,12.111 281.319,12.286 -1.259,23.178 -1.265,23.004 "/>
    <polygon id="193" fill="#FECE85" fill-rule="nonzero" points="281.317,12.228 281.324,12.403 -1.254,23.295 -1.261,23.12 "/>
    <polygon id="194" fill="#FECE86" fill-rule="nonzero" points="281.321,12.344 281.328,12.519 -1.25,23.411 -1.256,23.237 "/>
    <polygon id="195" fill="#FECE86" fill-rule="nonzero" points="281.326,12.461 281.333,12.635 -1.245,23.528 -1.252,23.353 "/>
    <polygon id="196" fill="#FECE86" fill-rule="nonzero" points="281.33,12.577 281.337,12.752 -1.24,23.644 -1.247,23.47 "/>
    <polygon id="197" fill="#FECE87" fill-rule="nonzero" points="281.335,12.693 281.341,12.868 -1.236,23.761 -1.243,23.586 "/>
    <polygon id="198" fill="#FECE87" fill-rule="nonzero" points="281.339,12.81 281.346,12.985 -1.231,23.877 -1.238,23.702 "/>
    <polygon id="199" fill="#FECF87" fill-rule="nonzero" points="281.344,12.927 281.351,13.101 -1.227,23.994 -1.234,23.819 "/>
    <polygon id="200" fill="#FECF87" fill-rule="nonzero" points="281.348,13.043 281.355,13.217 -1.222,24.11 -1.229,23.935 "/>
    <polygon id="201" fill="#FECF88" fill-rule="nonzero" points="281.353,13.159 281.36,13.334 -1.218,24.226 -1.225,24.052 "/>
    <polygon id="202" fill="#FECF88" fill-rule="nonzero" points="281.357,13.276 281.364,13.451 -1.214,24.343 -1.22,24.168 "/>
    <polygon id="203" fill="#FECF88" fill-rule="nonzero" points="281.362,13.392 281.369,13.567 -1.209,24.46 -1.216,24.285 "/>
    <polygon id="204" fill="#FFCF89" fill-rule="nonzero" points="281.366,13.509 281.373,13.683 -1.205,24.576 -1.211,24.401 "/>
    <polygon id="205" fill="#FFCF89" fill-rule="nonzero" points="281.371,13.625 281.378,13.8 -1.2,24.692 -1.207,24.518 "/>
    <polygon id="206" fill="#FECF8A" fill-rule="nonzero" points="281.375,13.742 281.382,13.916 -1.196,24.809 -1.202,24.634 "/>
    <polygon id="207" fill="#FECF8A" fill-rule="nonzero" points="281.38,13.858 281.386,14.033 -1.191,24.925 -1.198,24.75 "/>
    <polygon id="208" fill="#FECF8A" fill-rule="nonzero" points="281.384,13.975 281.391,14.149 -1.187,25.042 -1.193,24.867 "/>
    <polygon id="209" fill="#FFD08B" fill-rule="nonzero" points="281.389,14.091 281.395,14.266 -1.182,25.158 -1.189,24.984 "/>
    <polygon id="210" fill="#FFD08B" fill-rule="nonzero" points="281.393,14.207 281.4,14.382 -1.177,25.275 -1.185,25.1 "/>
    <polygon id="211" fill="#FFD08C" fill-rule="nonzero" points="281.398,14.324 281.404,14.499 -1.173,25.391 -1.18,25.216 "/>
    <polygon id="212" fill="#FFD08C" fill-rule="nonzero" points="281.402,14.44 281.409,14.615 -1.169,25.508 -1.175,25.333 "/>
    <polygon id="213" fill="#FFD18D" fill-rule="nonzero" points="281.407,14.557 281.413,14.731 -1.164,25.624 -1.171,25.449 "/>
    <polygon id="214" fill="#FFD18E" fill-rule="nonzero" points="281.411,14.673 281.418,14.848 -1.16,25.74 -1.166,25.566 "/>
    <polygon id="215" fill="#FFD18E" fill-rule="nonzero" points="281.416,14.79 281.423,14.964 -1.155,25.857 -1.162,25.682 "/>
    <polygon id="216" fill="#FFD28F" fill-rule="nonzero" points="281.42,14.906 281.427,15.081 -1.151,25.973 -1.157,25.799 "/>
    <polygon id="217" fill="#FFD28F" fill-rule="nonzero" points="281.425,15.023 281.431,15.197 -1.146,26.09 -1.153,25.915 "/>
    <polygon id="218" fill="#FFD290" fill-rule="nonzero" points="281.429,15.139 281.436,15.314 -1.142,26.206 -1.148,26.032 "/>
    <polygon id="219" fill="#FFD290" fill-rule="nonzero" points="281.434,15.255 281.44,15.43 -1.137,26.323 -1.144,26.148 "/>
    <polygon id="220" fill="#FFD391" fill-rule="nonzero" points="281.438,15.372 281.445,15.547 -1.133,26.439 -1.14,26.264 "/>
    <polygon id="221" fill="#FFD391" fill-rule="nonzero" points="281.443,15.489 281.449,15.663 -1.128,26.556 -1.135,26.381 "/>
    <polygon id="222" fill="#FFD392" fill-rule="nonzero" points="281.447,15.605 281.454,15.779 -1.124,26.672 -1.131,26.497 "/>
    <polygon id="223" fill="#FFD392" fill-rule="nonzero" points="281.452,15.721 281.458,15.896 -1.119,26.788 -1.126,26.614 "/>
    <polygon id="224" fill="#FFD393" fill-rule="nonzero" points="281.456,15.838 281.463,16.013 -1.115,26.905 -1.122,26.73 "/>
    <polygon id="225" fill="#FFD494" fill-rule="nonzero" points="281.46,15.954 281.467,16.129 -1.11,27.021 -1.117,26.847 "/>
    <polygon id="226" fill="#FFD494" fill-rule="nonzero" points="281.465,16.071 281.472,16.245 -1.106,27.138 -1.112,26.963 "/>
    <polygon id="227" fill="#FFD495" fill-rule="nonzero" points="281.469,16.187 281.476,16.362 -1.101,27.254 -1.108,27.08 "/>
    <polygon id="228" fill="#FFD495" fill-rule="nonzero" points="281.474,16.304 281.481,16.478 -1.097,27.371 -1.103,27.196 "/>
    <polygon id="229" fill="#FFD496" fill-rule="nonzero" points="281.479,16.42 281.485,16.595 -1.092,27.487 -1.099,27.312 "/>
    <polygon id="230" fill="#FFD597" fill-rule="nonzero" points="281.483,16.537 281.49,16.711 -1.088,27.604 -1.095,27.429 "/>
    <polygon id="231" fill="#FFD597" fill-rule="nonzero" points="281.488,16.653 281.494,16.828 -1.083,27.72 -1.09,27.546 "/>
    <polygon id="232" fill="#FFD598" fill-rule="nonzero" points="281.492,16.769 281.499,16.944 -1.079,27.836 -1.086,27.662 "/>
    <polygon id="233" fill="#FFD598" fill-rule="nonzero" points="281.497,16.886 281.503,17.061 -1.074,27.953 -1.081,27.778 "/>
    <polygon id="234" fill="#FFD699" fill-rule="nonzero" points="281.501,17.002 281.508,17.177 -1.07,28.07 -1.077,27.895 "/>
    <polygon id="235" fill="#FFD69A" fill-rule="nonzero" points="281.505,17.119 281.512,17.293 -1.065,28.186 -1.072,28.011 "/>
    <polygon id="236" fill="#FFD69A" fill-rule="nonzero" points="281.51,17.235 281.517,17.41 -1.061,28.302 -1.068,28.128 "/>
    <polygon id="237" fill="#FFD69B" fill-rule="nonzero" points="281.514,17.352 281.521,17.526 -1.057,28.419 -1.063,28.244 "/>
    <polygon id="238" fill="#FFD79B" fill-rule="nonzero" points="281.519,17.468 281.526,17.643 -1.052,28.535 -1.059,28.361 "/>
    <polygon id="239" fill="#FFD79C" fill-rule="nonzero" points="281.523,17.585 281.53,17.759 -1.047,28.652 -1.054,28.477 "/>
    <polygon id="240" fill="#FFD79C" fill-rule="nonzero" points="281.528,17.701 281.534,17.876 -1.043,28.768 -1.05,28.594 "/>
    <polygon id="241" fill="#FFD89D" fill-rule="nonzero" points="281.532,17.817 281.539,17.992 -1.038,28.885 -1.045,28.71 "/>
    <polygon id="242" fill="#FFD89E" fill-rule="nonzero" points="281.537,17.934 281.544,18.109 -1.034,29.001 -1.041,28.826 "/>
    <polygon id="243" fill="#FFD89E" fill-rule="nonzero" points="281.541,18.05 281.548,18.225 -1.029,29.118 -1.036,28.943 "/>
    <polygon id="244" fill="#FFD89E" fill-rule="nonzero" points="281.546,18.167 281.553,18.341 -1.025,29.234 -1.032,29.059 "/>
    <polygon id="245" fill="#FFD89F" fill-rule="nonzero" points="281.55,18.283 281.557,18.458 -1.02,29.35 -1.027,29.176 "/>
    <polygon id="246" fill="#FFD8A0" fill-rule="nonzero" points="281.555,18.4 281.562,18.575 -1.016,29.467 -1.023,29.292 "/>
    <polygon id="247" fill="#FFD9A1" fill-rule="nonzero" points="281.559,18.516 281.566,18.691 -1.012,29.583 -1.018,29.409 "/>
    <polygon id="248" fill="#FFD9A1" fill-rule="nonzero" points="281.564,18.633 281.571,18.807 -1.007,29.7 -1.014,29.525 "/>
    <polygon id="249" fill="#FFD9A2" fill-rule="nonzero" points="281.568,18.749 281.575,18.924 -1.003,29.816 -1.009,29.642 "/>
    <polygon id="250" fill="#FFD9A2" fill-rule="nonzero" points="281.573,18.865 281.579,19.04 -0.998,29.933 -1.005,29.758 "/>
    <polygon id="251" fill="#FFD9A3" fill-rule="nonzero" points="281.577,18.982 281.584,19.157 -0.994,30.049 -1,29.874 "/>
    <polygon id="252" fill="#FFDAA3" fill-rule="nonzero" points="281.582,19.099 281.588,19.273 -0.989,30.166 -0.996,29.991 "/>
    <polygon id="253" fill="#FFDAA4" fill-rule="nonzero" points="281.586,19.215 281.593,19.39 -0.984,30.282 -0.991,30.108 "/>
    <polygon id="254" fill="#FFDAA5" fill-rule="nonzero" points="281.591,19.331 281.597,19.506 -0.98,30.398 -0.987,30.224 "/>
    <polygon id="255" fill="#FFDBA6" fill-rule="nonzero" points="281.595,19.448 281.602,19.623 -0.975,30.515 -0.982,30.34 "/>
    <polygon id="256" fill="#FFDBA6" fill-rule="nonzero" points="281.6,19.564 281.607,19.739 -0.971,30.632 -0.978,30.457 "/>
    <polygon id="257" fill="#FFDBA6" fill-rule="nonzero" points="281.604,19.681 281.611,19.855 -0.967,30.748 -0.973,30.573 "/>
    <polygon id="258" fill="#FFDBA7" fill-rule="nonzero" points="281.609,19.797 281.616,19.972 -0.962,30.864 -0.969,30.69 "/>
    <polygon id="259" fill="#FFDCA8" fill-rule="nonzero" points="281.613,19.914 281.62,20.088 -0.958,30.981 -0.964,30.806 "/>
    <polygon id="260" fill="#FFDCA9" fill-rule="nonzero" points="281.618,20.03 281.624,20.205 -0.953,31.097 -0.96,30.922 "/>
    <polygon id="261" fill="#FFDCA9" fill-rule="nonzero" points="281.622,20.147 281.629,20.321 -0.949,31.214 -0.955,31.039 "/>
    <polygon id="262" fill="#FFDCA9" fill-rule="nonzero" points="281.627,20.263 281.633,20.438 -0.944,31.33 -0.951,31.156 "/>
    <polygon id="263" fill="#FFDDAA" fill-rule="nonzero" points="281.631,20.379 281.638,20.554 -0.94,31.447 -0.946,31.272 "/>
    <polygon id="264" fill="#FFDDAB" fill-rule="nonzero" points="281.636,20.496 281.642,20.671 -0.935,31.563 -0.942,31.388 "/>
    <polygon id="265" fill="#FFDDAB" fill-rule="nonzero" points="281.64,20.612 281.647,20.787 -0.931,31.68 -0.938,31.505 "/>
    <polygon id="266" fill="#FFDDAC" fill-rule="nonzero" points="281.645,20.729 281.651,20.903 -0.926,31.796 -0.933,31.621 "/>
    <polygon id="267" fill="#FFDDAD" fill-rule="nonzero" points="281.649,20.845 281.656,21.02 -0.922,31.912 -0.929,31.738 "/>
    <polygon id="268" fill="navajowhite" fill-rule="nonzero" points="281.653,20.962 281.66,21.137 -0.917,32.029 -0.924,31.854 "/>
    <polygon id="269" fill="navajowhite" fill-rule="nonzero" points="281.658,21.078 281.665,21.253 -0.913,32.145 -0.919,31.971 "/>
    <polygon id="270" fill="#FFDEAE" fill-rule="nonzero" points="281.662,21.195 281.669,21.369 -0.908,32.262 -0.915,32.087 "/>
    <polygon id="271" fill="#FFDEAF" fill-rule="nonzero" points="281.667,21.311 281.674,21.486 -0.904,32.378 -0.91,32.204 "/>
    <polygon id="272" fill="#FFDEB0" fill-rule="nonzero" points="281.672,21.427 281.678,21.602 -0.899,32.495 -0.906,32.32 "/>
    <polygon id="273" fill="#FFDFB0" fill-rule="nonzero" points="281.676,21.544 281.683,21.719 -0.895,32.611 -0.901,32.436 "/>
    <polygon id="274" fill="#FFDFB1" fill-rule="nonzero" points="281.681,21.661 281.687,21.835 -0.89,32.728 -0.897,32.553 "/>
    <polygon id="275" fill="#FFDFB1" fill-rule="nonzero" points="281.685,21.777 281.692,21.951 -0.886,32.844 -0.893,32.669 "/>
    <polygon id="276" fill="#FFDFB2" fill-rule="nonzero" points="281.69,21.893 281.696,22.068 -0.881,32.96 -0.888,32.786 "/>
    <polygon id="277" fill="#FFE0B3" fill-rule="nonzero" points="281.694,22.01 281.701,22.185 -0.877,33.077 -0.884,32.902 "/>
    <polygon id="278" fill="#FFE0B3" fill-rule="nonzero" points="281.698,22.126 281.705,22.301 -0.872,33.194 -0.879,33.019 "/>
    <polygon id="279" fill="#FFE0B4" fill-rule="nonzero" points="281.703,22.243 281.71,22.417 -0.868,33.31 -0.875,33.135 "/>
    <polygon id="280" fill="#FFE1B5" fill-rule="nonzero" points="281.707,22.359 281.714,22.534 -0.864,33.426 -0.87,33.252 "/>
    <polygon id="281" fill="#FFE1B6" fill-rule="nonzero" points="281.712,22.476 281.719,22.65 -0.859,33.543 -0.866,33.368 "/>
    <polygon id="282" fill="#FFE1B6" fill-rule="nonzero" points="281.716,22.592 281.723,22.767 -0.854,33.659 -0.861,33.484 "/>
    <polygon id="283" fill="#FFE1B6" fill-rule="nonzero" points="281.721,22.709 281.727,22.883 -0.85,33.776 -0.856,33.601 "/>
    <polygon id="284" fill="#FFE2B7" fill-rule="nonzero" points="281.725,22.825 281.732,23 -0.845,33.892 -0.852,33.718 "/>
    <polygon id="285" fill="#FFE2B8" fill-rule="nonzero" points="281.73,22.941 281.737,23.116 -0.841,34.009 -0.848,33.834 "/>
    <polygon id="286" fill="#FFE2B8" fill-rule="nonzero" points="281.735,23.058 281.741,23.233 -0.836,34.125 -0.843,33.95 "/>
    <polygon id="287" fill="#FFE2B9" fill-rule="nonzero" points="281.739,23.174 281.746,23.349 -0.832,34.242 -0.839,34.067 "/>
    <polygon id="288" fill="#FFE3BA" fill-rule="nonzero" points="281.743,23.291 281.75,23.465 -0.827,34.358 -0.834,34.183 "/>
    <polygon id="289" fill="#FFE3BA" fill-rule="nonzero" points="281.748,23.407 281.755,23.582 -0.823,34.475 -0.83,34.3 "/>
    <polygon id="290" fill="#FFE3BA" fill-rule="nonzero" points="281.752,23.524 281.759,23.698 -0.819,34.591 -0.825,34.416 "/>
    <polygon id="291" fill="#FFE3BB" fill-rule="nonzero" points="281.757,23.64 281.764,23.815 -0.814,34.707 -0.821,34.533 "/>
    <polygon id="292" fill="#FFE3BC" fill-rule="nonzero" points="281.761,23.757 281.768,23.931 -0.81,34.824 -0.816,34.649 "/>
    <polygon id="293" fill="#FFE3BD" fill-rule="nonzero" points="281.766,23.873 281.772,24.048 -0.805,34.94 -0.812,34.766 "/>
    <polygon id="294" fill="#FFE3BD" fill-rule="nonzero" points="281.77,23.989 281.777,24.164 -0.801,35.057 -0.807,34.882 "/>
    <polygon id="295" fill="#FFE4BE" fill-rule="nonzero" points="281.775,24.106 281.781,24.281 -0.796,35.173 -0.803,34.999 "/>
    <polygon id="296" fill="#FFE5BF" fill-rule="nonzero" points="281.779,24.223 281.786,24.397 -0.791,35.29 -0.798,35.115 "/>
    <polygon id="297" fill="#FFE4BE" fill-rule="nonzero" points="281.784,24.339 281.79,24.513 -0.787,35.406 -0.794,35.231 "/>
    <polygon id="298" fill="#FFE3BD" fill-rule="nonzero" points="281.788,24.455 281.795,24.63 -0.782,35.523 -0.789,35.348 "/>
    <polygon id="299" fill="#FFE3BD" fill-rule="nonzero" points="281.793,24.572 281.8,24.747 -0.778,35.639 -0.785,35.465 "/>
    <polygon id="300" fill="#FFE3BC" fill-rule="nonzero" points="281.797,24.688 281.804,24.863 -0.774,35.755 -0.78,35.581 "/>
    <polygon id="301" fill="#FFE3BB" fill-rule="nonzero" points="281.802,24.805 281.809,24.979 -0.769,35.872 -0.776,35.697 "/>
    <polygon id="302" fill="#FFE3BA" fill-rule="nonzero" points="281.806,24.921 281.813,25.096 -0.765,35.989 -0.771,35.814 "/>
    <polygon id="303" fill="#FFE3BA" fill-rule="nonzero" points="281.811,25.038 281.817,25.212 -0.76,36.105 -0.767,35.93 "/>
    <polygon id="304" fill="#FFE3BA" fill-rule="nonzero" points="281.815,25.154 281.822,25.329 -0.756,36.221 -0.762,36.047 "/>
    <polygon id="305" fill="#FFE2B9" fill-rule="nonzero" points="281.82,25.271 281.826,25.445 -0.751,36.338 -0.758,36.163 "/>
    <polygon id="306" fill="#FFE2B8" fill-rule="nonzero" points="281.824,25.387 281.831,25.562 -0.747,36.454 -0.753,36.28 "/>
    <polygon id="307" fill="#FFE2B8" fill-rule="nonzero" points="281.829,25.503 281.835,25.678 -0.742,36.571 -0.749,36.396 "/>
    <polygon id="308" fill="#FFE2B7" fill-rule="nonzero" points="281.833,25.62 281.84,25.795 -0.738,36.687 -0.745,36.513 "/>
    <polygon id="309" fill="#FFE1B6" fill-rule="nonzero" points="281.838,25.736 281.844,25.911 -0.733,36.804 -0.74,36.629 "/>
    <polygon id="310" fill="#FFE1B6" fill-rule="nonzero" points="281.842,25.853 281.849,26.028 -0.729,36.92 -0.736,36.745 "/>
    <polygon id="311" fill="#FFE1B6" fill-rule="nonzero" points="281.846,25.969 281.853,26.144 -0.724,37.037 -0.731,36.862 "/>
    <polygon id="312" fill="#FFE1B5" fill-rule="nonzero" points="281.851,26.086 281.858,26.26 -0.72,37.153 -0.726,36.978 "/>
    <polygon id="313" fill="#FFE0B4" fill-rule="nonzero" points="281.855,26.202 281.862,26.377 -0.715,37.269 -0.722,37.095 "/>
    <polygon id="314" fill="#FFE0B3" fill-rule="nonzero" points="281.86,26.319 281.867,26.494 -0.711,37.386 -0.717,37.211 "/>
    <polygon id="315" fill="#FFE0B3" fill-rule="nonzero" points="281.865,26.435 281.871,26.61 -0.706,37.502 -0.713,37.328 "/>
    <polygon id="316" fill="#FFDFB2" fill-rule="nonzero" points="281.869,26.552 281.876,26.726 -0.702,37.619 -0.708,37.444 "/>
    <polygon id="317" fill="#FFDFB1" fill-rule="nonzero" points="281.874,26.668 281.88,26.843 -0.697,37.735 -0.704,37.561 "/>
    <polygon id="318" fill="#FFDFB1" fill-rule="nonzero" points="281.878,26.784 281.885,26.959 -0.693,37.852 -0.7,37.677 "/>
    <polygon id="319" fill="#FFDFB0" fill-rule="nonzero" points="281.883,26.901 281.889,27.076 -0.688,37.968 -0.695,37.793 "/>
    <polygon id="320" fill="#FFDEB0" fill-rule="nonzero" points="281.887,27.018 281.894,27.192 -0.684,38.085 -0.691,37.91 "/>
    <polygon id="321" fill="#FFDEAF" fill-rule="nonzero" points="281.891,27.134 281.898,27.309 -0.679,38.201 -0.686,38.027 "/>
    <polygon id="322" fill="#FFDEAE" fill-rule="nonzero" points="281.896,27.25 281.903,27.425 -0.675,38.317 -0.682,38.143 "/>
    <polygon id="323" fill="navajowhite" fill-rule="nonzero" points="281.9,27.367 281.907,27.542 -0.671,38.434 -0.677,38.259 "/>
    <polygon id="324" fill="navajowhite" fill-rule="nonzero" points="281.905,27.483 281.912,27.658 -0.666,38.551 -0.673,38.376 "/>
    <polygon id="325" fill="#FFDDAD" fill-rule="nonzero" points="281.909,27.6 281.916,27.774 -0.661,38.667 -0.668,38.492 "/>
    <polygon id="326" fill="#FFDDAC" fill-rule="nonzero" points="281.914,27.716 281.92,27.891 -0.657,38.783 -0.663,38.609 "/>
    <polygon id="327" fill="#FFDDAB" fill-rule="nonzero" points="281.918,27.833 281.925,28.007 -0.652,38.9 -0.659,38.725 "/>
    <polygon id="328" fill="#FFDDAB" fill-rule="nonzero" points="281.923,27.949 281.93,28.124 -0.648,39.016 -0.655,38.841 "/>
    <polygon id="329" fill="#FFDDAA" fill-rule="nonzero" points="281.928,28.066 281.934,28.24 -0.643,39.133 -0.65,38.958 "/>
    <polygon id="330" fill="#FFDCA9" fill-rule="nonzero" points="281.932,28.182 281.939,28.357 -0.639,39.249 -0.646,39.075 "/>
    <polygon id="331" fill="#FFDCA9" fill-rule="nonzero" points="281.936,28.298 281.943,28.473 -0.634,39.366 -0.641,39.191 "/>
    <polygon id="332" fill="#FFDCA9" fill-rule="nonzero" points="281.941,28.415 281.948,28.59 -0.63,39.482 -0.637,39.307 "/>
    <polygon id="333" fill="#FFDCA8" fill-rule="nonzero" points="281.945,28.531 281.952,28.706 -0.626,39.599 -0.632,39.424 "/>
    <polygon id="334" fill="#FFDBA7" fill-rule="nonzero" points="281.95,28.648 281.957,28.822 -0.621,39.715 -0.628,39.54 "/>
    <polygon id="335" fill="#FFDBA6" fill-rule="nonzero" points="281.954,28.764 281.961,28.939 -0.617,39.831 -0.623,39.657 "/>
    <polygon id="336" fill="#FFDBA6" fill-rule="nonzero" points="281.959,28.881 281.965,29.056 -0.612,39.948 -0.619,39.773 "/>
    <polygon id="337" fill="#FFDBA6" fill-rule="nonzero" points="281.963,28.997 281.97,29.172 -0.608,40.064 -0.614,39.89 "/>
    <polygon id="338" fill="#FFDAA5" fill-rule="nonzero" points="281.968,29.114 281.974,29.288 -0.603,40.181 -0.61,40.006 "/>
    <polygon id="339" fill="#FFDAA4" fill-rule="nonzero" points="281.972,29.23 281.979,29.405 -0.598,40.297 -0.605,40.123 "/>
    <polygon id="340" fill="#FFDAA3" fill-rule="nonzero" points="281.977,29.346 281.983,29.521 -0.594,40.414 -0.601,40.239 "/>
    <polygon id="341" fill="#FFD9A3" fill-rule="nonzero" points="281.981,29.463 281.988,29.638 -0.589,40.53 -0.596,40.355 "/>
    <polygon id="342" fill="#FFD9A2" fill-rule="nonzero" points="281.986,29.58 281.993,29.754 -0.585,40.647 -0.592,40.472 "/>
    <polygon id="343" fill="#FFD9A2" fill-rule="nonzero" points="281.99,29.696 281.997,29.87 -0.581,40.763 -0.587,40.588 "/>
    <polygon id="344" fill="#FFD9A1" fill-rule="nonzero" points="281.995,29.812 282.002,29.987 -0.576,40.879 -0.583,40.705 "/>
    <polygon id="345" fill="#FFD9A1" fill-rule="nonzero" points="281.999,29.929 282.006,30.104 -0.572,40.996 -0.578,40.821 "/>
    <polygon id="346" fill="#FFD8A0" fill-rule="nonzero" points="282.004,30.045 282.01,30.22 -0.567,41.113 -0.574,40.938 "/>
    <polygon id="347" fill="#FFD89F" fill-rule="nonzero" points="282.008,30.162 282.015,30.336 -0.563,41.229 -0.569,41.054 "/>
    <polygon id="348" fill="#FFD89E" fill-rule="nonzero" points="282.013,30.278 282.019,30.453 -0.558,41.345 -0.565,41.171 "/>
    <polygon id="349" fill="#FFD89E" fill-rule="nonzero" points="282.017,30.395 282.024,30.569 -0.554,41.462 -0.56,41.287 "/>
    <polygon id="350" fill="#FFD89E" fill-rule="nonzero" points="282.022,30.511 282.028,30.686 -0.549,41.578 -0.556,41.403 "/>
    <polygon id="351" fill="#FFD89D" fill-rule="nonzero" points="282.026,30.628 282.033,30.802 -0.545,41.695 -0.552,41.52 "/>
    <polygon id="352" fill="#FFD79C" fill-rule="nonzero" points="282.031,30.744 282.037,30.919 -0.54,41.811 -0.547,41.637 "/>
    <polygon id="353" fill="#FFD79C" fill-rule="nonzero" points="282.035,30.86 282.042,31.035 -0.536,41.927 -0.543,41.753 "/>
    <polygon id="354" fill="#FFD79B" fill-rule="nonzero" points="282.039,30.977 282.046,31.152 -0.531,42.044 -0.538,41.869 "/>
    <polygon id="355" fill="#FFD69B" fill-rule="nonzero" points="282.044,31.093 282.051,31.268 -0.527,42.161 -0.533,41.986 "/>
    <polygon id="356" fill="#FFD69A" fill-rule="nonzero" points="282.048,31.21 282.055,31.384 -0.522,42.277 -0.529,42.102 "/>
    <polygon id="357" fill="#FFD69A" fill-rule="nonzero" points="282.053,31.326 282.06,31.501 -0.518,42.393 -0.524,42.219 "/>
    <polygon id="358" fill="#FFD699" fill-rule="nonzero" points="282.058,31.443 282.064,31.617 -0.513,42.51 -0.52,42.335 "/>
    <polygon id="359" fill="#FFD598" fill-rule="nonzero" points="282.062,31.559 282.069,31.734 -0.509,42.626 -0.515,42.452 "/>
    <polygon id="360" fill="#FFD598" fill-rule="nonzero" points="282.067,31.676 282.073,31.85 -0.504,42.743 -0.511,42.568 "/>
    <polygon id="361" fill="#FFD597" fill-rule="nonzero" points="282.071,31.792 282.078,31.967 -0.5,42.859 -0.507,42.685 "/>
    <polygon id="362" fill="#FFD597" fill-rule="nonzero" points="282.076,31.908 282.082,32.083 -0.495,42.976 -0.502,42.801 "/>
    <polygon id="363" fill="#FFD496" fill-rule="nonzero" points="282.08,32.025 282.087,32.2 -0.491,43.092 -0.498,42.917 "/>
    <polygon id="364" fill="#FFD495" fill-rule="nonzero" points="282.084,32.142 282.091,32.316 -0.486,43.209 -0.493,43.034 "/>
    <polygon id="365" fill="#FFD495" fill-rule="nonzero" points="282.089,32.258 282.096,32.432 -0.482,43.325 -0.489,43.15 "/>
    <polygon id="366" fill="#FFD494" fill-rule="nonzero" points="282.093,32.374 282.1,32.549 -0.478,43.441 -0.484,43.267 "/>
    <polygon id="367" fill="#FFD494" fill-rule="nonzero" points="282.098,32.491 282.105,32.666 -0.473,43.558 -0.48,43.383 "/>
    <polygon id="368" fill="#FFD393" fill-rule="nonzero" points="282.102,32.607 282.109,32.782 -0.468,43.674 -0.475,43.5 "/>
    <polygon id="369" fill="#FFD392" fill-rule="nonzero" points="282.107,32.724 282.113,32.898 -0.464,43.791 -0.47,43.616 "/>
    <polygon id="370" fill="#FFD392" fill-rule="nonzero" points="282.111,32.84 282.118,33.015 -0.459,43.907 -0.466,43.733 "/>
    <polygon id="371" fill="#FFD391" fill-rule="nonzero" points="282.116,32.956 282.123,33.131 -0.455,44.024 -0.462,43.849 "/>
    <polygon id="372" fill="#FFD391" fill-rule="nonzero" points="282.121,33.073 282.127,33.248 -0.45,44.14 -0.457,43.965 "/>
    <polygon id="373" fill="#FFD290" fill-rule="nonzero" points="282.125,33.19 282.132,33.364 -0.446,44.257 -0.453,44.082 "/>
    <polygon id="374" fill="#FFD290" fill-rule="nonzero" points="282.129,33.306 282.136,33.481 -0.441,44.373 -0.448,44.199 "/>
    <polygon id="375" fill="#FFD28F" fill-rule="nonzero" points="282.134,33.422 282.141,33.597 -0.437,44.489 -0.444,44.315 "/>
    <polygon id="376" fill="#FFD28F" fill-rule="nonzero" points="282.138,33.539 282.145,33.714 -0.433,44.606 -0.439,44.431 "/>
    <polygon id="377" fill="#FFD18E" fill-rule="nonzero" points="282.143,33.655 282.15,33.83 -0.428,44.723 -0.435,44.548 "/>
    <polygon id="378" fill="#FFD18E" fill-rule="nonzero" points="282.147,33.772 282.154,33.946 -0.424,44.839 -0.43,44.664 "/>
    <polygon id="379" fill="#FFD18D" fill-rule="nonzero" points="282.152,33.888 282.158,34.063 -0.419,44.955 -0.426,44.781 "/>
    <polygon id="380" fill="#FFD08C" fill-rule="nonzero" points="282.156,34.005 282.163,34.179 -0.415,45.072 -0.421,44.897 "/>
    <polygon id="381" fill="#FFD08C" fill-rule="nonzero" points="282.161,34.121 282.167,34.296 -0.41,45.188 -0.417,45.014 "/>
    <polygon id="382" fill="#FFD08B" fill-rule="nonzero" points="282.165,34.238 282.172,34.412 -0.405,45.305 -0.412,45.13 "/>
    <polygon id="383" fill="#FFD08B" fill-rule="nonzero" points="282.17,34.354 282.176,34.529 -0.401,45.421 -0.408,45.247 "/>
    <polygon id="384" fill="#FECF8A" fill-rule="nonzero" points="282.174,34.47 282.181,34.645 -0.396,45.538 -0.403,45.363 "/>
    <polygon id="385" fill="#FECF8A" fill-rule="nonzero" points="282.179,34.587 282.186,34.762 -0.392,45.654 -0.399,45.479 "/>
    <polygon id="386" fill="#FECF8A" fill-rule="nonzero" points="282.183,34.703 282.19,34.878 -0.388,45.771 -0.394,45.596 "/>
    <polygon id="387" fill="#FFCF89" fill-rule="nonzero" points="282.188,34.82 282.195,34.994 -0.383,45.887 -0.39,45.712 "/>
    <polygon id="388" fill="#FFCF89" fill-rule="nonzero" points="282.192,34.936 282.199,35.111 -0.379,46.003 -0.385,45.829 "/>
    <polygon id="389" fill="#FECF88" fill-rule="nonzero" points="282.197,35.053 282.203,35.228 -0.374,46.12 -0.381,45.945 "/>
    <polygon id="390" fill="#FECF88" fill-rule="nonzero" points="282.201,35.169 282.208,35.344 -0.37,46.236 -0.376,46.062 "/>
    <polygon id="391" fill="#FECF88" fill-rule="nonzero" points="282.206,35.286 282.212,35.46 -0.365,46.353 -0.372,46.178 "/>
    <polygon id="392" fill="#FECF87" fill-rule="nonzero" points="282.21,35.402 282.217,35.577 -0.361,46.469 -0.367,46.295 "/>
    <polygon id="393" fill="#FECF87" fill-rule="nonzero" points="282.215,35.518 282.221,35.693 -0.356,46.586 -0.363,46.411 "/>
    <polygon id="394" fill="#FECE87" fill-rule="nonzero" points="282.219,35.635 282.226,35.81 -0.352,46.702 -0.359,46.527 "/>
    <polygon id="395" fill="#FECE87" fill-rule="nonzero" points="282.224,35.752 282.23,35.926 -0.347,46.819 -0.354,46.644 "/>
    <polygon id="396" fill="#FECE86" fill-rule="nonzero" points="282.228,35.868 282.235,36.043 -0.343,46.935 -0.35,46.761 "/>
    <polygon id="397" fill="#FECE86" fill-rule="nonzero" points="282.233,35.984 282.239,36.159 -0.338,47.051 -0.345,46.877 "/>
    <polygon id="398" fill="#FECE86" fill-rule="nonzero" points="282.237,36.101 282.244,36.276 -0.334,47.168 -0.34,46.993 "/>
    <polygon id="399" fill="#FECE85" fill-rule="nonzero" points="282.241,36.217 282.248,36.392 -0.329,47.285 -0.336,47.11 "/>
    <polygon id="400" fill="#FECD85" fill-rule="nonzero" points="282.246,36.334 282.253,36.508 -0.325,47.401 -0.331,47.226 "/>
    <polygon id="401" fill="#FECD84" fill-rule="nonzero" points="282.251,36.45 282.257,36.625 -0.32,47.517 -0.327,47.343 "/>
    <polygon id="402" fill="#FECD84" fill-rule="nonzero" points="282.255,36.567 282.262,36.741 -0.316,47.634 -0.322,47.459 "/>
    <polygon id="403" fill="#FECD84" fill-rule="nonzero" points="282.26,36.683 282.266,36.858 -0.311,47.75 -0.318,47.575 "/>
    <polygon id="404" fill="#FECD84" fill-rule="nonzero" points="282.264,36.8 282.271,36.974 -0.307,47.867 -0.314,47.692 "/>
    <polygon id="405" fill="#FECD84" fill-rule="nonzero" points="282.269,36.916 282.275,37.091 -0.302,47.983 -0.309,47.809 "/>
    <polygon id="406" fill="#FECC83" fill-rule="nonzero" points="282.273,37.032 282.28,37.207 -0.298,48.1 -0.305,47.925 "/>
    <polygon id="407" fill="#FECC83" fill-rule="nonzero" points="282.278,37.149 282.284,37.324 -0.293,48.216 -0.3,48.041 "/>
    <polygon id="408" fill="#FECC82" fill-rule="nonzero" points="282.282,37.265 282.289,37.44 -0.289,48.333 -0.296,48.158 "/>
    <polygon id="409" fill="#FECC82" fill-rule="nonzero" points="282.286,37.382 282.293,37.556 -0.285,48.449 -0.291,48.274 "/>
    <polygon id="410" fill="#FECC82" fill-rule="nonzero" points="282.291,37.498 282.298,37.673 -0.28,48.565 -0.287,48.391 "/>
    <polygon id="411" fill="#FECB81" fill-rule="nonzero" points="282.295,37.615 282.302,37.79 -0.275,48.682 -0.282,48.507 "/>
    <polygon id="412" fill="#FECB81" fill-rule="nonzero" points="282.3,37.731 282.307,37.906 -0.271,48.798 -0.277,48.624 "/>
    <polygon id="413" fill="#FECB81" fill-rule="nonzero" points="282.304,37.848 282.311,38.022 -0.266,48.915 -0.273,48.74 "/>
    <polygon id="414" fill="#FECB81" fill-rule="nonzero" points="282.309,37.964 282.316,38.139 -0.262,49.031 -0.269,48.857 "/>
    <polygon id="415" fill="#FECB80" fill-rule="nonzero" points="282.314,38.08 282.32,38.255 -0.257,49.148 -0.264,48.973 "/>
    <polygon id="416" fill="#FECB80" fill-rule="nonzero" points="282.318,38.197 282.325,38.372 -0.253,49.264 -0.26,49.089 "/>
    <polygon id="417" fill="#FECB7F" fill-rule="nonzero" points="282.323,38.314 282.329,38.488 -0.248,49.381 -0.255,49.206 "/>
    <polygon id="418" fill="#FECB7F" fill-rule="nonzero" points="282.327,38.43 282.334,38.604 -0.244,49.497 -0.251,49.322 "/>
    <polygon id="419" fill="#FECB7F" fill-rule="nonzero" points="282.331,38.546 282.338,38.721 -0.24,49.613 -0.246,49.439 "/>
    <polygon id="420" fill="#FECB7F" fill-rule="nonzero" points="282.336,38.663 282.343,38.838 -0.235,49.73 -0.242,49.555 "/>
    <polygon id="421" fill="#FECB7F" fill-rule="nonzero" points="282.34,38.779 282.347,38.954 -0.231,49.847 -0.237,49.672 "/>
    <polygon id="422" fill="#FECA7E" fill-rule="nonzero" points="282.345,38.896 282.352,39.07 -0.226,49.963 -0.233,49.788 "/>
    <polygon id="423" fill="#FECA7E" fill-rule="nonzero" points="282.349,39.012 282.356,39.187 -0.222,50.079 -0.228,49.905 "/>
    <polygon id="424" fill="#FECA7D" fill-rule="nonzero" points="282.354,39.129 282.36,39.303 -0.217,50.196 -0.224,50.021 "/>
    <polygon id="425" fill="#FECA7D" fill-rule="nonzero" points="282.358,39.245 282.365,39.42 -0.212,50.312 -0.219,50.137 "/>
    <polygon id="426" fill="#FECA7D" fill-rule="nonzero" points="282.363,39.362 282.369,39.536 -0.208,50.429 -0.215,50.254 "/>
    <polygon id="427" fill="#FECA7C" fill-rule="nonzero" points="282.367,39.478 282.374,39.653 -0.203,50.545 -0.21,50.371 "/>
    <polygon id="428" fill="#FECA7C" fill-rule="nonzero" points="282.372,39.594 282.379,39.769 -0.199,50.662 -0.206,50.487 "/>
    <polygon id="429" fill="#FEC97B" fill-rule="nonzero" points="282.376,39.711 282.383,39.886 -0.195,50.778 -0.201,50.603 "/>
    <polygon id="430" fill="#FEC97B" fill-rule="nonzero" points="282.381,39.827 282.388,40.002 -0.19,50.895 -0.197,50.72 "/>
    <polygon id="431" fill="#FEC97B" fill-rule="nonzero" points="282.385,39.944 282.392,40.118 -0.186,51.011 -0.192,50.836 "/>
    <polygon id="432" fill="#FEC97B" fill-rule="nonzero" points="282.39,40.06 282.397,40.235 -0.181,51.127 -0.188,50.953 "/>
    <polygon id="433" fill="#FEC97B" fill-rule="nonzero" points="282.394,40.177 282.401,40.351 -0.177,51.244 -0.183,51.069 "/>
    <polygon id="434" fill="#FEC87A" fill-rule="nonzero" points="282.399,40.293 282.405,40.468 -0.172,51.36 -0.179,51.186 "/>
    <polygon id="435" fill="#FEC87A" fill-rule="nonzero" points="282.403,40.41 282.41,40.584 -0.168,51.477 -0.174,51.302 "/>
    <polygon id="436" fill="#FEC879" fill-rule="nonzero" points="282.408,40.526 282.414,40.701 -0.163,51.593 -0.17,51.419 "/>
    <polygon id="437" fill="#FEC879" fill-rule="nonzero" points="282.412,40.642 282.419,40.817 -0.159,51.71 -0.165,51.535 "/>
    <polygon id="438" fill="#FEC878" fill-rule="nonzero" points="282.417,40.759 282.423,40.934 -0.154,51.826 -0.161,51.652 "/>
    <polygon id="439" fill="#FEC878" fill-rule="nonzero" points="282.421,40.876 282.428,41.05 -0.15,51.943 -0.157,51.768 "/>
    <polygon id="440" fill="#FEC778" fill-rule="nonzero" points="282.426,40.992 282.432,41.166 -0.145,52.059 -0.152,51.884 "/>
    <polygon id="441" fill="#FEC778" fill-rule="nonzero" points="282.43,41.108 282.437,41.283 -0.141,52.176 -0.147,52.001 "/>
    <polygon id="442" fill="#FEC778" fill-rule="nonzero" points="282.434,41.225 282.442,41.4 -0.136,52.292 -0.143,52.117 "/>
    <polygon id="443" fill="#FEC777" fill-rule="nonzero" points="282.439,41.341 282.446,41.516 -0.132,52.408 -0.138,52.234 "/>
    <polygon id="444" fill="#FEC777" fill-rule="nonzero" points="282.444,41.458 282.45,41.632 -0.127,52.525 -0.134,52.35 "/>
    <polygon id="445" fill="#FEC776" fill-rule="nonzero" points="282.448,41.574 282.455,41.749 -0.123,52.642 -0.129,52.467 "/>
    <polygon id="446" fill="#FEC776" fill-rule="nonzero" points="282.453,41.691 282.459,41.865 -0.118,52.758 -0.125,52.583 "/>
    <polygon id="447" fill="#FEC776" fill-rule="nonzero" points="282.457,41.807 282.464,41.982 -0.114,52.874 -0.12,52.7 "/>
    <polygon id="448" fill="#FEC675" fill-rule="nonzero" points="282.462,41.924 282.468,42.098 -0.109,52.991 -0.116,52.816 "/>
    <polygon id="449" fill="#FEC675" fill-rule="nonzero" points="282.466,42.04 282.473,42.215 -0.105,53.107 -0.112,52.933 "/>
    <polygon id="450" fill="#FEC675" fill-rule="nonzero" points="282.471,42.156 282.477,42.331 -0.1,53.224 -0.107,53.049 "/>
    <polygon id="451" fill="#FEC675" fill-rule="nonzero" points="282.475,42.273 282.482,42.448 -0.096,53.34 -0.103,53.166 "/>
    <polygon id="452" fill="#FEC674" fill-rule="nonzero" points="282.479,42.389 282.486,42.564 -0.091,53.457 -0.098,53.282 "/>
    <polygon id="453" fill="#FEC674" fill-rule="nonzero" points="282.484,42.506 282.491,42.681 -0.087,53.573 -0.094,53.398 "/>
    <polygon id="454" fill="#FEC674" fill-rule="nonzero" points="282.488,42.622 282.495,42.797 -0.082,53.69 -0.089,53.515 "/>
    <polygon id="455" fill="#FEC673" fill-rule="nonzero" points="282.493,42.739 282.5,42.913 -0.078,53.806 -0.084,53.631 "/>
    <polygon id="456" fill="#FEC673" fill-rule="nonzero" points="282.497,42.855 282.504,43.03 -0.073,53.922 -0.08,53.748 "/>
    <polygon id="457" fill="#FEC572" fill-rule="nonzero" points="282.502,42.972 282.509,43.146 -0.069,54.039 -0.075,53.864 "/>
    <polygon id="458" fill="#FEC572" fill-rule="nonzero" points="282.507,43.088 282.513,43.263 -0.064,54.155 -0.071,53.981 "/>
    <polygon id="459" fill="#FEC572" fill-rule="nonzero" points="282.511,43.205 282.518,43.379 -0.06,54.272 -0.067,54.097 "/>
    <polygon id="460" fill="#FEC572" fill-rule="nonzero" points="282.516,43.321 282.522,43.496 -0.055,54.388 -0.062,54.214 "/>
    <polygon id="461" fill="#FEC572" fill-rule="nonzero" points="282.52,43.437 282.527,43.612 -0.051,54.505 -0.058,54.33 "/>
    <polygon id="462" fill="#FEC571" fill-rule="nonzero" points="282.524,43.554 282.531,43.729 -0.046,54.621 -0.053,54.446 "/>
    <polygon id="463" fill="#FEC471" fill-rule="nonzero" points="282.529,43.671 282.536,43.845 -0.042,54.738 -0.049,54.563 "/>
    <polygon id="464" fill="#FEC470" fill-rule="nonzero" points="282.533,43.787 282.54,43.962 -0.038,54.854 -0.044,54.68 "/>
    <polygon id="465" fill="#FEC470" fill-rule="nonzero" points="282.538,43.903 282.545,44.078 -0.033,54.97 -0.04,54.796 "/>
    <polygon id="466" fill="#FEC46F" fill-rule="nonzero" points="282.542,44.02 282.549,44.195 -0.028,55.087 -0.035,54.912 "/>
    <polygon id="467" fill="#FEC46F" fill-rule="nonzero" points="282.547,44.136 282.553,44.311 -0.024,55.204 -0.031,55.029 "/>
    <polygon id="468" fill="#FEC46F" fill-rule="nonzero" points="282.551,44.253 282.558,44.427 -0.019,55.32 -0.026,55.145 "/>
    <polygon id="469" fill="#FDC36F" fill-rule="nonzero" points="282.556,44.369 282.562,44.544 -0.015,55.436 -0.022,55.262 "/>
    <polygon id="470" fill="#FDC36F" fill-rule="nonzero" points="282.56,44.486 282.567,44.66 -0.01,55.553 -0.017,55.378 "/>
    <polygon id="471" fill="#FDC36E" fill-rule="nonzero" points="282.565,44.602 282.572,44.777 -0.006,55.669 -0.013,55.494 "/>
    <polygon id="472" fill="#FDC36E" fill-rule="nonzero" points="282.569,44.719 282.576,44.893 -0.001,55.786 -0.008,55.611 "/>
    <polygon id="473" fill="#FEC36D" fill-rule="nonzero" points="282.574,44.835 282.581,45.01 0.003,55.902 -0.004,55.728 "/>
    <polygon id="474" fill="#FDC36D" fill-rule="nonzero" points="282.578,44.951 282.585,45.126 0.007,56.019 0.001,55.844 "/>
    <polygon id="475" fill="#FDC36D" fill-rule="nonzero" points="282.583,45.068 282.59,45.243 0.012,56.135 0.005,55.96 "/>
    <polygon id="476" fill="#FDC26C" fill-rule="nonzero" points="282.587,45.184 282.594,45.359 0.016,56.252 0.01,56.077 "/>
    <polygon id="477" fill="#FDC26C" fill-rule="nonzero" points="282.592,45.301 282.598,45.475 0.021,56.368 0.014,56.193 "/>
    <polygon id="478" fill="#FDC26C" fill-rule="nonzero" points="282.596,45.417 282.603,45.592 0.025,56.484 0.019,56.31 "/>
    <polygon id="479" fill="#FDC26C" fill-rule="nonzero" points="282.601,45.534 282.607,45.709 0.03,56.601 0.023,56.426 "/>
    <polygon id="480" fill="#FDC26B" fill-rule="nonzero" points="282.605,45.65 282.612,45.825 0.034,56.717 0.028,56.543 "/>
    <polygon id="481" fill="#FDC26B" fill-rule="nonzero" points="282.61,45.767 282.616,45.941 0.039,56.834 0.032,56.659 "/>
    <polygon id="482" fill="#FDC26B" fill-rule="nonzero" points="282.614,45.883 282.621,46.058 0.044,56.95 0.037,56.776 "/>
    <polygon id="483" fill="#FDC26A" fill-rule="nonzero" points="282.619,45.999 282.625,46.174 0.048,57.067 0.041,56.892 "/>
    <polygon id="484" fill="#FDC26A" fill-rule="nonzero" points="282.623,46.116 282.63,46.291 0.052,57.183 0.046,57.008 "/>
    <polygon id="485" fill="#FDC269" fill-rule="nonzero" points="282.628,46.233 282.635,46.407 0.057,57.3 0.05,57.125 "/>
    <polygon id="486" fill="#FDC169" fill-rule="nonzero" points="282.632,46.349 282.639,46.523 0.061,57.416 0.055,57.241 "/>
    <polygon id="487" fill="#FDC168" fill-rule="nonzero" points="282.637,46.465 282.643,46.64 0.066,57.532 0.059,57.358 "/>
    <polygon id="488" fill="#FDC168" fill-rule="nonzero" points="282.641,46.582 282.648,46.757 0.07,57.649 0.064,57.474 "/>
    <polygon id="489" fill="#FDC168" fill-rule="nonzero" points="282.646,46.698 282.652,46.873 0.075,57.766 0.068,57.591 "/>
    <polygon id="490" fill="#FDC167" fill-rule="nonzero" points="282.65,46.815 282.657,46.989 0.079,57.882 0.073,57.707 "/>
    <polygon id="491" fill="#FDC067" fill-rule="nonzero" points="282.655,46.931 282.661,47.106 0.084,57.998 0.077,57.824 "/>
    <polygon id="492" fill="#FDC067" fill-rule="nonzero" points="282.659,47.048 282.666,47.222 0.088,58.115 0.081,57.94 "/>
    <polygon id="493" fill="#FDC067" fill-rule="nonzero" points="282.664,47.164 282.67,47.339 0.093,58.231 0.086,58.056 "/>
    <polygon id="494" fill="#FDC066" fill-rule="nonzero" points="282.668,47.281 282.675,47.455 0.097,58.348 0.09,58.173 "/>
    <polygon id="495" fill="#FDC066" fill-rule="nonzero" points="282.672,47.397 282.679,47.572 0.102,58.464 0.095,58.29 "/>
    <polygon id="496" fill="#FDC066" fill-rule="nonzero" points="282.677,47.513 282.684,47.688 0.106,58.58 0.1,58.406 "/>
    <polygon id="497" fill="#FDBF65" fill-rule="nonzero" points="282.681,47.63 282.688,47.805 0.111,58.697 0.104,58.522 "/>
    <polygon id="498" fill="#FDBF65" fill-rule="nonzero" points="282.686,47.746 282.693,47.921 0.115,58.814 0.109,58.639 "/>
    <polygon id="499" fill="#FDBF64" fill-rule="nonzero" points="282.69,47.863 282.697,48.037 0.12,58.93 0.113,58.755 "/>
    <polygon id="500" fill="#FDBF64" fill-rule="nonzero" points="282.695,47.979 282.702,48.154 0.124,59.046 0.118,58.872 "/>
    <polygon id="501" fill="#FDBF63" fill-rule="nonzero" points="282.7,48.096 282.706,48.27 0.129,59.163 0.122,58.988 "/>
    <polygon id="502" fill="#FDBF63" fill-rule="nonzero" points="282.704,48.212 282.711,48.387 0.133,59.279 0.126,59.105 "/>
    <polygon id="503" fill="#FDBF63" fill-rule="nonzero" points="282.709,48.329 282.715,48.503 0.138,59.396 0.131,59.221 "/>
    <polygon id="504" fill="#FDBF62" fill-rule="nonzero" points="282.713,48.445 282.72,48.62 0.142,59.512 0.135,59.338 "/>
    <polygon id="505" fill="#FDBF62" fill-rule="nonzero" points="282.717,48.561 282.724,48.736 0.147,59.629 0.14,59.454 "/>
    <polygon id="506" fill="#FDBE62" fill-rule="nonzero" points="282.722,48.678 282.729,48.853 0.151,59.745 0.144,59.57 "/>
    <polygon id="507" fill="#FDBE62" fill-rule="nonzero" points="282.726,48.795 282.733,48.969 0.155,59.862 0.149,59.687 "/>
    <polygon id="508" fill="#FDBE61" fill-rule="nonzero" points="282.731,48.911 282.738,49.085 0.16,59.978 0.153,59.803 "/>
    <polygon id="509" fill="#FDBE61" fill-rule="nonzero" points="282.735,49.027 282.742,49.202 0.165,60.094 0.158,59.92 "/>
    <polygon id="510" fill="#FDBE61" fill-rule="nonzero" points="282.74,49.144 282.746,49.319 0.169,60.211 0.162,60.036 "/>
    <polygon id="511" fill="#FDBE60" fill-rule="nonzero" points="282.744,49.26 282.751,49.435 0.174,60.327 0.167,60.153 "/>
    <polygon id="512" fill="#FDBE60" fill-rule="nonzero" points="282.749,49.377 282.756,49.551 0.178,60.444 0.171,60.269 "/>
    <polygon id="513" fill="#FDBE5F" fill-rule="nonzero" points="282.753,49.493 282.76,49.668 0.183,60.56 0.176,60.386 "/>
    <polygon id="514" fill="#FDBD5F" fill-rule="nonzero" points="282.758,49.609 282.765,49.784 0.187,60.677 0.18,60.502 "/>
    <polygon id="515" fill="#FDBD5E" fill-rule="nonzero" points="282.762,49.726 282.769,49.901 0.192,60.793 0.185,60.618 "/>
    <polygon id="516" fill="#FDBD5E" fill-rule="nonzero" points="282.767,49.843 282.774,50.017 0.196,60.91 0.189,60.735 "/>
    <polygon id="517" fill="#FDBD5E" fill-rule="nonzero" points="282.771,49.959 282.778,50.134 0.2,61.026 0.194,60.852 "/>
    <polygon id="518" fill="#FDBD5E" fill-rule="nonzero" points="282.776,50.075 282.783,50.25 0.205,61.142 0.198,60.968 "/>
    <polygon id="519" fill="#FDBD5E" fill-rule="nonzero" points="282.78,50.192 282.787,50.367 0.209,61.259 0.203,61.084 "/>
    <polygon id="520" fill="#FDBC5D" fill-rule="nonzero" points="282.785,50.308 282.791,50.483 0.214,61.376 0.207,61.201 "/>
    <polygon id="521" fill="#FDBC5D" fill-rule="nonzero" points="282.789,50.425 282.796,50.599 0.218,61.492 0.212,61.317 "/>
    <polygon id="522" fill="#FDBC5C" fill-rule="nonzero" points="282.794,50.541 282.8,50.716 0.223,61.608 0.216,61.434 "/>
    <polygon id="523" fill="#FDBC5C" fill-rule="nonzero" points="282.798,50.658 282.805,50.832 0.228,61.725 0.221,61.55 "/>
    <polygon id="524" fill="#FDBC5C" fill-rule="nonzero" points="282.803,50.774 282.809,50.949 0.232,61.841 0.225,61.667 "/>
    <polygon id="525" fill="#FDBC5B" fill-rule="nonzero" points="282.807,50.891 282.814,51.065 0.237,61.958 0.23,61.783 "/>
    <polygon id="526" fill="#FDBB5B" fill-rule="nonzero" points="282.812,51.007 282.818,51.182 0.241,62.074 0.234,61.9 "/>
    <polygon id="527" fill="#FDBB5A" fill-rule="nonzero" points="282.816,51.123 282.823,51.298 0.245,62.191 0.239,62.016 "/>
    <polygon id="528" fill="#FDBB5A" fill-rule="nonzero" points="282.821,51.24 282.828,51.415 0.25,62.307 0.243,62.132 "/>
    <polygon id="529" fill="#FDBB5A" fill-rule="nonzero" points="282.825,51.356 282.832,51.531 0.254,62.424 0.248,62.249 "/>
    <polygon id="530" fill="#FDBB5A" fill-rule="nonzero" points="282.83,51.473 282.836,51.647 0.259,62.54 0.252,62.365 "/>
    <polygon id="531" fill="#FDBB5A" fill-rule="nonzero" points="282.834,51.589 282.841,51.764 0.263,62.656 0.257,62.482 "/>
    <polygon id="532" fill="#FDBB59" fill-rule="nonzero" points="282.839,51.706 282.845,51.881 0.268,62.773 0.261,62.598 "/>
    <polygon id="533" fill="#FDBB59" fill-rule="nonzero" points="282.843,51.822 282.85,51.997 0.272,62.889 0.266,62.715 "/>
    <polygon id="534" fill="#FDBB58" fill-rule="nonzero" points="282.848,51.939 282.854,52.113 0.277,63.006 0.27,62.831 "/>
    <polygon id="535" fill="#FDBB58" fill-rule="nonzero" points="282.852,52.055 282.859,52.23 0.281,63.122 0.274,62.948 "/>
    <polygon id="536" fill="#FDBB57" fill-rule="nonzero" points="282.857,52.171 282.863,52.346 0.286,63.239 0.279,63.064 "/>
    <polygon id="537" fill="#FDBA57" fill-rule="nonzero" points="282.861,52.288 282.868,52.463 0.29,63.355 0.283,63.18 "/>
    <polygon id="538" fill="#FDBA57" fill-rule="nonzero" points="282.865,52.405 282.872,52.579 0.295,63.472 0.288,63.297 "/>
    <polygon id="539" fill="#FDBA56" fill-rule="nonzero" points="282.87,52.521 282.877,52.696 0.299,63.588 0.293,63.413 "/>
    <polygon id="540" fill="#FDBA56" fill-rule="nonzero" points="282.874,52.637 282.881,52.812 0.304,63.704 0.297,63.53 "/>
    <polygon id="541" fill="#FDBA56" fill-rule="nonzero" points="282.879,52.754 282.886,52.929 0.308,63.821 0.302,63.646 "/>
    <polygon id="542" fill="#FDBA56" fill-rule="nonzero" points="282.884,52.87 282.89,53.045 0.313,63.938 0.306,63.763 "/>
    <polygon id="543" fill="#FCB955" fill-rule="nonzero" points="282.888,52.987 282.895,53.161 0.317,64.054 0.311,63.879 "/>
    <polygon id="544" fill="#FCB955" fill-rule="nonzero" points="282.893,53.103 282.899,53.278 0.322,64.17 0.315,63.996 "/>
    <polygon id="545" fill="#FCB955" fill-rule="nonzero" points="282.897,53.22 282.904,53.394 0.326,64.287 0.319,64.112 "/>
    <polygon id="546" fill="#FCB954" fill-rule="nonzero" points="282.902,53.336 282.908,53.511 0.331,64.403 0.324,64.228 "/>
    <polygon id="547" fill="#FCB954" fill-rule="nonzero" points="282.906,53.453 282.913,53.627 0.335,64.52 0.328,64.345 "/>
    <polygon id="548" fill="#FCB953" fill-rule="nonzero" points="282.91,53.569 282.917,53.744 0.34,64.636 0.333,64.462 "/>
    <polygon id="549" fill="#FCB853" fill-rule="nonzero" points="282.915,53.685 282.922,53.86 0.344,64.753 0.337,64.578 "/>
    <polygon id="550" fill="#FCB852" fill-rule="nonzero" points="282.919,53.802 282.926,53.977 0.348,64.869 0.342,64.694 "/>
    <polygon id="551" fill="#FCB852" fill-rule="nonzero" points="282.924,53.918 282.931,54.093 0.353,64.986 0.346,64.811 "/>
    <polygon id="552" fill="#FCB852" fill-rule="nonzero" points="282.928,54.035 282.935,54.209 0.358,65.102 0.351,64.927 "/>
    <polygon id="553" fill="#FCB853" fill-rule="nonzero" points="282.933,54.151 282.939,54.326 0.362,65.218 0.356,65.044 "/>
    <polygon id="554" fill="#FCB953" fill-rule="nonzero" points="282.937,54.268 282.944,54.442 0.367,65.335 0.36,65.16 "/>
    <polygon id="555" fill="#FCB954" fill-rule="nonzero" points="282.942,54.384 282.949,54.559 0.371,65.451 0.364,65.277 "/>
    <polygon id="556" fill="#FCB954" fill-rule="nonzero" points="282.946,54.501 282.953,54.675 0.376,65.568 0.369,65.393 "/>
    <polygon id="557" fill="#FCB955" fill-rule="nonzero" points="282.951,54.617 282.958,54.792 0.38,65.684 0.373,65.51 "/>
    <polygon id="558" fill="#FCB955" fill-rule="nonzero" points="282.955,54.733 282.962,54.908 0.385,65.801 0.378,65.626 "/>
    <polygon id="559" fill="#FCB955" fill-rule="nonzero" points="282.96,54.85 282.967,55.025 0.389,65.917 0.382,65.742 "/>
    <polygon id="560" fill="#FDBA56" fill-rule="nonzero" points="282.964,54.967 282.971,55.141 0.393,66.034 0.387,65.859 "/>
    <polygon id="561" fill="#FDBA56" fill-rule="nonzero" points="282.969,55.083 282.976,55.257 0.398,66.15 0.391,65.975 "/>
    <polygon id="562" fill="#FDBA56" fill-rule="nonzero" points="282.973,55.199 282.98,55.374 0.402,66.266 0.396,66.092 "/>
    <polygon id="563" fill="#FDBA56" fill-rule="nonzero" points="282.978,55.316 282.984,55.491 0.407,66.383 0.4,66.208 "/>
    <polygon id="564" fill="#FDBA57" fill-rule="nonzero" points="282.982,55.432 282.989,55.607 0.411,66.5 0.405,66.325 "/>
    <polygon id="565" fill="#FDBA57" fill-rule="nonzero" points="282.987,55.549 282.993,55.723 0.416,66.616 0.409,66.441 "/>
    <polygon id="566" fill="#FDBB57" fill-rule="nonzero" points="282.991,55.665 282.998,55.84 0.421,66.732 0.414,66.558 "/>
    <polygon id="567" fill="#FDBB58" fill-rule="nonzero" points="282.996,55.782 283.002,55.956 0.425,66.849 0.418,66.674 "/>
    <polygon id="568" fill="#FDBB58" fill-rule="nonzero" points="283,55.898 283.007,56.073 0.43,66.965 0.423,66.79 "/>
    <polygon id="569" fill="#FDBB59" fill-rule="nonzero" points="283.005,56.015 283.012,56.189 0.434,67.082 0.427,66.907 "/>
    <polygon id="570" fill="#FDBB59" fill-rule="nonzero" points="283.009,56.131 283.016,56.306 0.438,67.198 0.432,67.024 "/>
    <polygon id="571" fill="#FDBB5A" fill-rule="nonzero" points="283.014,56.247 283.021,56.422 0.443,67.314 0.436,67.14 "/>
    <polygon id="572" fill="#FDBB5A" fill-rule="nonzero" points="283.018,56.364 283.025,56.539 0.447,67.431 0.441,67.256 "/>
    <polygon id="573" fill="#FDBB5A" fill-rule="nonzero" points="283.023,56.48 283.029,56.655 0.452,67.548 0.445,67.373 "/>
    <polygon id="574" fill="#FDBB5A" fill-rule="nonzero" points="283.027,56.597 283.034,56.771 0.456,67.664 0.45,67.489 "/>
    <polygon id="575" fill="#FDBB5A" fill-rule="nonzero" points="283.032,56.713 283.038,56.888 0.461,67.78 0.454,67.606 "/>
    <polygon id="576" fill="#FDBB5B" fill-rule="nonzero" points="283.036,56.83 283.043,57.004 0.465,67.897 0.459,67.722 "/>
    <polygon id="577" fill="#FDBC5B" fill-rule="nonzero" points="283.041,56.946 283.047,57.121 0.47,68.013 0.463,67.839 "/>
    <polygon id="578" fill="#FDBC5C" fill-rule="nonzero" points="283.045,57.063 283.052,57.237 0.474,68.13 0.467,67.955 "/>
    <polygon id="579" fill="#FDBC5C" fill-rule="nonzero" points="283.05,57.179 283.056,57.354 0.479,68.246 0.472,68.072 "/>
    <polygon id="580" fill="#FDBC5C" fill-rule="nonzero" points="283.054,57.295 283.061,57.47 0.483,68.363 0.476,68.188 "/>
    <polygon id="581" fill="#FDBC5D" fill-rule="nonzero" points="283.058,57.412 283.065,57.587 0.488,68.479 0.481,68.304 "/>
    <polygon id="582" fill="#FDBC5D" fill-rule="nonzero" points="283.063,57.529 283.07,57.703 0.492,68.596 0.486,68.421 "/>
    <polygon id="583" fill="#FDBD5E" fill-rule="nonzero" points="283.067,57.645 283.074,57.819 0.497,68.712 0.49,68.537 "/>
    <polygon id="584" fill="#FDBD5E" fill-rule="nonzero" points="283.072,57.761 283.079,57.936 0.501,68.829 0.495,68.654 "/>
    <polygon id="585" fill="#FDBD5E" fill-rule="nonzero" points="283.077,57.878 283.083,58.053 0.506,68.945 0.499,68.77 "/>
    <polygon id="586" fill="#FDBD5E" fill-rule="nonzero" points="283.081,57.994 283.088,58.169 0.51,69.061 0.504,68.887 "/>
    <polygon id="587" fill="#FDBD5E" fill-rule="nonzero" points="283.086,58.111 283.092,58.285 0.515,69.178 0.508,69.003 "/>
    <polygon id="588" fill="#FDBD5F" fill-rule="nonzero" points="283.09,58.227 283.097,58.402 0.519,69.294 0.512,69.12 "/>
    <polygon id="589" fill="#FDBE5F" fill-rule="nonzero" points="283.095,58.343 283.101,58.518 0.524,69.411 0.517,69.236 "/>
    <polygon id="590" fill="#FDBE60" fill-rule="nonzero" points="283.099,58.46 283.106,58.635 0.528,69.527 0.521,69.353 "/>
    <polygon id="591" fill="#FDBE60" fill-rule="nonzero" points="283.103,58.577 283.11,58.751 0.533,69.644 0.526,69.469 "/>
    <polygon id="592" fill="#FDBE61" fill-rule="nonzero" points="283.108,58.693 283.115,58.868 0.537,69.76 0.53,69.586 "/>
    <polygon id="593" fill="#FDBE61" fill-rule="nonzero" points="283.112,58.809 283.119,58.984 0.541,69.877 0.535,69.702 "/>
    <polygon id="594" fill="#FDBE61" fill-rule="nonzero" points="283.117,58.926 283.124,59.101 0.546,69.993 0.539,69.819 "/>
    <polygon id="595" fill="#FDBE62" fill-rule="nonzero" points="283.121,59.042 283.128,59.217 0.551,70.11 0.544,69.935 "/>
    <polygon id="596" fill="#FDBE62" fill-rule="nonzero" points="283.126,59.159 283.133,59.333 0.555,70.226 0.549,70.051 "/>
    <polygon id="597" fill="#FDBF62" fill-rule="nonzero" points="283.13,59.275 283.137,59.45 0.56,70.343 0.553,70.168 "/>
    <polygon id="598" fill="#FDBF62" fill-rule="nonzero" points="283.135,59.392 283.142,59.566 0.564,70.459 0.557,70.284 "/>
    <polygon id="599" fill="#FDBF63" fill-rule="nonzero" points="283.14,59.508 283.146,59.683 0.569,70.575 0.562,70.401 "/>
    <polygon id="600" fill="#FDBF63" fill-rule="nonzero" points="283.144,59.625 283.151,59.799 0.573,70.692 0.566,70.517 "/>
    <polygon id="601" fill="#FDBF63" fill-rule="nonzero" points="283.148,59.741 283.155,59.916 0.578,70.808 0.571,70.634 "/>
    <polygon id="602" fill="#FDBF64" fill-rule="nonzero" points="283.153,59.858 283.16,60.032 0.582,70.925 0.575,70.75 "/>
    <polygon id="603" fill="#FDBF64" fill-rule="nonzero" points="283.157,59.974 283.164,60.149 0.586,71.041 0.58,70.867 "/>
    <polygon id="604" fill="#FDBF65" fill-rule="nonzero" points="283.162,60.09 283.169,60.265 0.591,71.158 0.584,70.983 "/>
    <polygon id="605" fill="#FDBF65" fill-rule="nonzero" points="283.166,60.207 283.173,60.382 0.595,71.274 0.589,71.099 "/>
    <polygon id="606" fill="#FDC066" fill-rule="nonzero" points="283.171,60.323 283.178,60.498 0.6,71.391 0.593,71.216 "/>
    <polygon id="607" fill="#FDC066" fill-rule="nonzero" points="283.175,60.44 283.182,60.615 0.604,71.507 0.598,71.333 "/>
    <polygon id="608" fill="#FDC066" fill-rule="nonzero" points="283.18,60.556 283.186,60.731 0.609,71.623 0.602,71.449 "/>
    <polygon id="609" fill="#FDC067" fill-rule="nonzero" points="283.184,60.673 283.191,60.848 0.614,71.74 0.607,71.565 "/>
    <polygon id="610" fill="#FDC067" fill-rule="nonzero" points="283.189,60.789 283.195,60.964 0.618,71.857 0.611,71.682 "/>
    <polygon id="611" fill="#FDC067" fill-rule="nonzero" points="283.193,60.906 283.2,61.08 0.623,71.973 0.616,71.798 "/>
    <polygon id="612" fill="#FDC167" fill-rule="nonzero" points="283.198,61.022 283.205,61.197 0.627,72.089 0.62,71.915 "/>
    <polygon id="613" fill="#FDC168" fill-rule="nonzero" points="283.202,61.139 283.209,61.313 0.631,72.206 0.625,72.031 "/>
    <polygon id="614" fill="#FDC168" fill-rule="nonzero" points="283.207,61.255 283.214,61.43 0.636,72.322 0.629,72.147 "/>
    <polygon id="615" fill="#FDC168" fill-rule="nonzero" points="283.211,61.372 283.218,61.546 0.64,72.439 0.634,72.264 "/>
    <polygon id="616" fill="#FDC169" fill-rule="nonzero" points="283.216,61.488 283.223,61.663 0.645,72.555 0.638,72.381 "/>
    <polygon id="617" fill="#FDC269" fill-rule="nonzero" points="283.22,61.604 283.227,61.779 0.649,72.672 0.643,72.497 "/>
    <polygon id="618" fill="#FDC26A" fill-rule="nonzero" points="283.225,61.721 283.231,61.896 0.654,72.788 0.647,72.613 "/>
    <polygon id="619" fill="#FDC26A" fill-rule="nonzero" points="283.229,61.837 283.236,62.012 0.658,72.905 0.652,72.73 "/>
    <polygon id="620" fill="#FDC26B" fill-rule="nonzero" points="283.234,61.954 283.24,62.128 0.663,73.021 0.656,72.846 "/>
    <polygon id="621" fill="#FDC26B" fill-rule="nonzero" points="283.238,62.07 283.245,62.245 0.667,73.137 0.66,72.963 "/>
    <polygon id="622" fill="#FDC26B" fill-rule="nonzero" points="283.243,62.187 283.249,62.362 0.672,73.254 0.665,73.079 "/>
    <polygon id="623" fill="#FDC26C" fill-rule="nonzero" points="283.247,62.303 283.254,62.478 0.676,73.37 0.669,73.196 "/>
    <polygon id="624" fill="#FDC26C" fill-rule="nonzero" points="283.252,62.42 283.258,62.594 0.681,73.487 0.674,73.312 "/>
    <polygon id="625" fill="#FDC26C" fill-rule="nonzero" points="283.256,62.536 283.263,62.711 0.685,73.603 0.679,73.429 "/>
    <polygon id="626" fill="#FDC26C" fill-rule="nonzero" points="283.26,62.652 283.268,62.827 0.69,73.72 0.683,73.545 "/>
    <polygon id="627" fill="#FDC36D" fill-rule="nonzero" points="283.265,62.769 283.272,62.944 0.694,73.836 0.688,73.661 "/>
    <polygon id="628" fill="#FDC36D" fill-rule="nonzero" points="283.27,62.886 283.276,63.06 0.699,73.953 0.692,73.778 "/>
    <polygon id="629" fill="#FEC36D" fill-rule="nonzero" points="283.274,63.002 283.281,63.176 0.703,74.069 0.697,73.894 "/>
    <polygon id="630" fill="#FDC36E" fill-rule="nonzero" points="283.279,63.118 283.285,63.293 0.708,74.185 0.701,74.011 "/>
    <polygon id="631" fill="#FDC36E" fill-rule="nonzero" points="283.283,63.235 283.28,63.159 0.703,74.051 0.705,74.127 "/>
   </g>
  </g>
 </g>
</svg>
