<?xml version="1.0" encoding="UTF-8"?>
<!DOCTYPE svg PUBLIC "-//W3C//DTD SVG 1.1//EN" "http://www.w3.org/Graphics/SVG/1.1/DTD/svg11.dtd">
<!-- Creator: CorelDRAW -->
<svg xmlns="http://www.w3.org/2000/svg" xml:space="preserve" width="1289px" height="329px" version="1.1" shape-rendering="geometricPrecision" text-rendering="geometricPrecision" image-rendering="optimizeQuality" fill-rule="evenodd" clip-rule="evenodd"
viewBox="0 0 1385.68 353.87"
 xmlns:xlink="http://www.w3.org/1999/xlink"
 xmlns:xodm="http://www.corel.com/coreldraw/odm/2003">
 <defs>
    <linearGradient id="id0" gradientUnits="userSpaceOnUse" x1="938.88" y1="90.98" x2="831.38" y2="567.27">
     <stop offset="0" stop-opacity="1" stop-color="#785433"/>
     <stop offset="0.0666667" stop-opacity="1" stop-color="#755333"/>
     <stop offset="0.211765" stop-opacity="1" stop-color="#F2CF4E"/>
     <stop offset="0.521569" stop-opacity="1" stop-color="#F8F283"/>
     <stop offset="0.929412" stop-opacity="1" stop-color="#B87E3C"/>
     <stop offset="1" stop-opacity="1" stop-color="#715133"/>
    </linearGradient>
    <linearGradient id="id1" gradientUnits="userSpaceOnUse" x1="938.88" y1="90.98" x2="831.38" y2="567.27">
     <stop offset="0" stop-opacity="1" stop-color="#785433"/>
     <stop offset="0.0666667" stop-opacity="1" stop-color="#755333"/>
     <stop offset="0.211765" stop-opacity="1" stop-color="#F2CF4E"/>
     <stop offset="0.521569" stop-opacity="1" stop-color="#F8F283"/>
     <stop offset="0.929412" stop-opacity="1" stop-color="#B87E3C"/>
     <stop offset="1" stop-opacity="1" stop-color="#715133"/>
    </linearGradient>
    <linearGradient id="id2" gradientUnits="userSpaceOnUse" x1="938.88" y1="90.98" x2="831.38" y2="567.27">
     <stop offset="0" stop-opacity="1" stop-color="#785433"/>
     <stop offset="0.0666667" stop-opacity="1" stop-color="#755333"/>
     <stop offset="0.211765" stop-opacity="1" stop-color="#F2CF4E"/>
     <stop offset="0.521569" stop-opacity="1" stop-color="#F8F283"/>
     <stop offset="0.929412" stop-opacity="1" stop-color="#B87E3C"/>
     <stop offset="1" stop-opacity="1" stop-color="#715133"/>
    </linearGradient>
    <linearGradient id="id3" gradientUnits="userSpaceOnUse" x1="938.88" y1="90.98" x2="831.38" y2="567.27">
     <stop offset="0" stop-opacity="1" stop-color="#785433"/>
     <stop offset="0.0666667" stop-opacity="1" stop-color="#755333"/>
     <stop offset="0.211765" stop-opacity="1" stop-color="#F2CF4E"/>
     <stop offset="0.521569" stop-opacity="1" stop-color="#F8F283"/>
     <stop offset="0.929412" stop-opacity="1" stop-color="#B87E3C"/>
     <stop offset="1" stop-opacity="1" stop-color="#715133"/>
    </linearGradient>
    <linearGradient id="id4" gradientUnits="userSpaceOnUse" x1="938.88" y1="90.98" x2="831.38" y2="567.27">
     <stop offset="0" stop-opacity="1" stop-color="#785433"/>
     <stop offset="0.0666667" stop-opacity="1" stop-color="#755333"/>
     <stop offset="0.211765" stop-opacity="1" stop-color="#F2CF4E"/>
     <stop offset="0.521569" stop-opacity="1" stop-color="#F8F283"/>
     <stop offset="0.929412" stop-opacity="1" stop-color="#B87E3C"/>
     <stop offset="1" stop-opacity="1" stop-color="#715133"/>
    </linearGradient>
    <linearGradient id="id5" gradientUnits="userSpaceOnUse" x1="938.88" y1="90.98" x2="831.38" y2="567.27">
     <stop offset="0" stop-opacity="1" stop-color="#785433"/>
     <stop offset="0.0666667" stop-opacity="1" stop-color="#755333"/>
     <stop offset="0.211765" stop-opacity="1" stop-color="#F2CF4E"/>
     <stop offset="0.521569" stop-opacity="1" stop-color="#F8F283"/>
     <stop offset="0.929412" stop-opacity="1" stop-color="#B87E3C"/>
     <stop offset="1" stop-opacity="1" stop-color="#715133"/>
    </linearGradient>
    <linearGradient id="id6" gradientUnits="userSpaceOnUse" x1="938.88" y1="90.98" x2="831.38" y2="567.27">
     <stop offset="0" stop-opacity="1" stop-color="#785433"/>
     <stop offset="0.0666667" stop-opacity="1" stop-color="#755333"/>
     <stop offset="0.211765" stop-opacity="1" stop-color="#F2CF4E"/>
     <stop offset="0.521569" stop-opacity="1" stop-color="#F8F283"/>
     <stop offset="0.929412" stop-opacity="1" stop-color="#B87E3C"/>
     <stop offset="1" stop-opacity="1" stop-color="#715133"/>
    </linearGradient>
    <linearGradient id="id7" gradientUnits="userSpaceOnUse" x1="938.88" y1="90.98" x2="831.38" y2="567.27">
     <stop offset="0" stop-opacity="1" stop-color="#785433"/>
     <stop offset="0.0666667" stop-opacity="1" stop-color="#755333"/>
     <stop offset="0.211765" stop-opacity="1" stop-color="#F2CF4E"/>
     <stop offset="0.521569" stop-opacity="1" stop-color="#F8F283"/>
     <stop offset="0.929412" stop-opacity="1" stop-color="#B87E3C"/>
     <stop offset="1" stop-opacity="1" stop-color="#715133"/>
    </linearGradient>
    <linearGradient id="id8" gradientUnits="userSpaceOnUse" x1="938.88" y1="90.98" x2="831.38" y2="567.27">
     <stop offset="0" stop-opacity="1" stop-color="#785433"/>
     <stop offset="0.0666667" stop-opacity="1" stop-color="#755333"/>
     <stop offset="0.211765" stop-opacity="1" stop-color="#F2CF4E"/>
     <stop offset="0.521569" stop-opacity="1" stop-color="#F8F283"/>
     <stop offset="0.929412" stop-opacity="1" stop-color="#B87E3C"/>
     <stop offset="1" stop-opacity="1" stop-color="#715133"/>
    </linearGradient>
    <linearGradient id="id9" gradientUnits="userSpaceOnUse" x1="938.88" y1="90.98" x2="831.38" y2="567.27">
     <stop offset="0" stop-opacity="1" stop-color="#785433"/>
     <stop offset="0.0666667" stop-opacity="1" stop-color="#755333"/>
     <stop offset="0.211765" stop-opacity="1" stop-color="#F2CF4E"/>
     <stop offset="0.521569" stop-opacity="1" stop-color="#F8F283"/>
     <stop offset="0.929412" stop-opacity="1" stop-color="#B87E3C"/>
     <stop offset="1" stop-opacity="1" stop-color="#715133"/>
    </linearGradient>
    <linearGradient id="id10" gradientUnits="userSpaceOnUse" x1="938.88" y1="90.98" x2="831.38" y2="567.27">
     <stop offset="0" stop-opacity="1" stop-color="#785433"/>
     <stop offset="0.0666667" stop-opacity="1" stop-color="#755333"/>
     <stop offset="0.211765" stop-opacity="1" stop-color="#F2CF4E"/>
     <stop offset="0.521569" stop-opacity="1" stop-color="#F8F283"/>
     <stop offset="0.929412" stop-opacity="1" stop-color="#B87E3C"/>
     <stop offset="1" stop-opacity="1" stop-color="#715133"/>
    </linearGradient>
    <linearGradient id="id11" gradientUnits="userSpaceOnUse" x1="938.88" y1="90.98" x2="831.38" y2="567.27">
     <stop offset="0" stop-opacity="1" stop-color="#785433"/>
     <stop offset="0.0666667" stop-opacity="1" stop-color="#755333"/>
     <stop offset="0.211765" stop-opacity="1" stop-color="#F2CF4E"/>
     <stop offset="0.521569" stop-opacity="1" stop-color="#F8F283"/>
     <stop offset="0.929412" stop-opacity="1" stop-color="#B87E3C"/>
     <stop offset="1" stop-opacity="1" stop-color="#715133"/>
    </linearGradient>
    <linearGradient id="id12" gradientUnits="userSpaceOnUse" x1="938.88" y1="90.98" x2="831.38" y2="567.27">
     <stop offset="0" stop-opacity="1" stop-color="#785433"/>
     <stop offset="0.0666667" stop-opacity="1" stop-color="#755333"/>
     <stop offset="0.211765" stop-opacity="1" stop-color="#F2CF4E"/>
     <stop offset="0.521569" stop-opacity="1" stop-color="#F8F283"/>
     <stop offset="0.929412" stop-opacity="1" stop-color="#B87E3C"/>
     <stop offset="1" stop-opacity="1" stop-color="#715133"/>
    </linearGradient>
    <linearGradient id="id13" gradientUnits="userSpaceOnUse" x1="938.88" y1="90.98" x2="831.38" y2="567.27">
     <stop offset="0" stop-opacity="1" stop-color="#785433"/>
     <stop offset="0.0666667" stop-opacity="1" stop-color="#755333"/>
     <stop offset="0.211765" stop-opacity="1" stop-color="#F2CF4E"/>
     <stop offset="0.521569" stop-opacity="1" stop-color="#F8F283"/>
     <stop offset="0.929412" stop-opacity="1" stop-color="#B87E3C"/>
     <stop offset="1" stop-opacity="1" stop-color="#715133"/>
    </linearGradient>
    <linearGradient id="id14" gradientUnits="userSpaceOnUse" x1="938.88" y1="90.98" x2="831.38" y2="567.27">
     <stop offset="0" stop-opacity="1" stop-color="#785433"/>
     <stop offset="0.0666667" stop-opacity="1" stop-color="#755333"/>
     <stop offset="0.211765" stop-opacity="1" stop-color="#F2CF4E"/>
     <stop offset="0.521569" stop-opacity="1" stop-color="#F8F283"/>
     <stop offset="0.929412" stop-opacity="1" stop-color="#B87E3C"/>
     <stop offset="1" stop-opacity="1" stop-color="#715133"/>
    </linearGradient>
    <linearGradient id="id15" gradientUnits="userSpaceOnUse" x1="938.88" y1="90.98" x2="831.38" y2="567.27">
     <stop offset="0" stop-opacity="1" stop-color="#785433"/>
     <stop offset="0.0666667" stop-opacity="1" stop-color="#755333"/>
     <stop offset="0.211765" stop-opacity="1" stop-color="#F2CF4E"/>
     <stop offset="0.521569" stop-opacity="1" stop-color="#F8F283"/>
     <stop offset="0.929412" stop-opacity="1" stop-color="#B87E3C"/>
     <stop offset="1" stop-opacity="1" stop-color="#715133"/>
    </linearGradient>
    <linearGradient id="id16" gradientUnits="userSpaceOnUse" x1="938.88" y1="90.98" x2="831.38" y2="567.27">
     <stop offset="0" stop-opacity="1" stop-color="#785433"/>
     <stop offset="0.0666667" stop-opacity="1" stop-color="#755333"/>
     <stop offset="0.211765" stop-opacity="1" stop-color="#F2CF4E"/>
     <stop offset="0.521569" stop-opacity="1" stop-color="#F8F283"/>
     <stop offset="0.929412" stop-opacity="1" stop-color="#B87E3C"/>
     <stop offset="1" stop-opacity="1" stop-color="#715133"/>
    </linearGradient>
    <linearGradient id="id17" gradientUnits="userSpaceOnUse" x1="938.88" y1="90.98" x2="831.38" y2="567.27">
     <stop offset="0" stop-opacity="1" stop-color="#785433"/>
     <stop offset="0.0666667" stop-opacity="1" stop-color="#755333"/>
     <stop offset="0.211765" stop-opacity="1" stop-color="#F2CF4E"/>
     <stop offset="0.521569" stop-opacity="1" stop-color="#F8F283"/>
     <stop offset="0.929412" stop-opacity="1" stop-color="#B87E3C"/>
     <stop offset="1" stop-opacity="1" stop-color="#715133"/>
    </linearGradient>
    <linearGradient id="id18" gradientUnits="userSpaceOnUse" x1="938.88" y1="90.98" x2="831.38" y2="567.27">
     <stop offset="0" stop-opacity="1" stop-color="#785433"/>
     <stop offset="0.0666667" stop-opacity="1" stop-color="#755333"/>
     <stop offset="0.211765" stop-opacity="1" stop-color="#F2CF4E"/>
     <stop offset="0.521569" stop-opacity="1" stop-color="#F8F283"/>
     <stop offset="0.929412" stop-opacity="1" stop-color="#B87E3C"/>
     <stop offset="1" stop-opacity="1" stop-color="#715133"/>
    </linearGradient>
    <linearGradient id="id19" gradientUnits="userSpaceOnUse" x1="938.88" y1="90.98" x2="831.38" y2="567.27">
     <stop offset="0" stop-opacity="1" stop-color="#785433"/>
     <stop offset="0.0666667" stop-opacity="1" stop-color="#755333"/>
     <stop offset="0.211765" stop-opacity="1" stop-color="#F2CF4E"/>
     <stop offset="0.521569" stop-opacity="1" stop-color="#F8F283"/>
     <stop offset="0.929412" stop-opacity="1" stop-color="#B87E3C"/>
     <stop offset="1" stop-opacity="1" stop-color="#715133"/>
    </linearGradient>
    <linearGradient id="id20" gradientUnits="userSpaceOnUse" x1="938.88" y1="90.98" x2="831.38" y2="567.27">
     <stop offset="0" stop-opacity="1" stop-color="#785433"/>
     <stop offset="0.0666667" stop-opacity="1" stop-color="#755333"/>
     <stop offset="0.211765" stop-opacity="1" stop-color="#F2CF4E"/>
     <stop offset="0.521569" stop-opacity="1" stop-color="#F8F283"/>
     <stop offset="0.929412" stop-opacity="1" stop-color="#B87E3C"/>
     <stop offset="1" stop-opacity="1" stop-color="#715133"/>
    </linearGradient>
    <linearGradient id="id21" gradientUnits="userSpaceOnUse" x1="938.88" y1="90.98" x2="831.38" y2="567.27">
     <stop offset="0" stop-opacity="1" stop-color="#785433"/>
     <stop offset="0.0666667" stop-opacity="1" stop-color="#755333"/>
     <stop offset="0.211765" stop-opacity="1" stop-color="#F2CF4E"/>
     <stop offset="0.521569" stop-opacity="1" stop-color="#F8F283"/>
     <stop offset="0.929412" stop-opacity="1" stop-color="#B87E3C"/>
     <stop offset="1" stop-opacity="1" stop-color="#715133"/>
    </linearGradient>
    <linearGradient id="id22" gradientUnits="userSpaceOnUse" x1="938.88" y1="90.98" x2="831.38" y2="567.27">
     <stop offset="0" stop-opacity="1" stop-color="#785433"/>
     <stop offset="0.0666667" stop-opacity="1" stop-color="#755333"/>
     <stop offset="0.211765" stop-opacity="1" stop-color="#F2CF4E"/>
     <stop offset="0.521569" stop-opacity="1" stop-color="#F8F283"/>
     <stop offset="0.929412" stop-opacity="1" stop-color="#B87E3C"/>
     <stop offset="1" stop-opacity="1" stop-color="#715133"/>
    </linearGradient>
    <linearGradient id="id23" gradientUnits="userSpaceOnUse" x1="938.88" y1="90.98" x2="831.38" y2="567.27">
     <stop offset="0" stop-opacity="1" stop-color="#785433"/>
     <stop offset="0.0666667" stop-opacity="1" stop-color="#755333"/>
     <stop offset="0.211765" stop-opacity="1" stop-color="#F2CF4E"/>
     <stop offset="0.521569" stop-opacity="1" stop-color="#F8F283"/>
     <stop offset="0.929412" stop-opacity="1" stop-color="#B87E3C"/>
     <stop offset="1" stop-opacity="1" stop-color="#715133"/>
    </linearGradient>
    <linearGradient id="id24" gradientUnits="userSpaceOnUse" x1="938.88" y1="90.98" x2="831.38" y2="567.27">
     <stop offset="0" stop-opacity="1" stop-color="#785433"/>
     <stop offset="0.0666667" stop-opacity="1" stop-color="#755333"/>
     <stop offset="0.211765" stop-opacity="1" stop-color="#F2CF4E"/>
     <stop offset="0.521569" stop-opacity="1" stop-color="#F8F283"/>
     <stop offset="0.929412" stop-opacity="1" stop-color="#B87E3C"/>
     <stop offset="1" stop-opacity="1" stop-color="#715133"/>
    </linearGradient>
    <linearGradient id="id25" gradientUnits="userSpaceOnUse" x1="938.88" y1="90.98" x2="831.38" y2="567.27">
     <stop offset="0" stop-opacity="1" stop-color="#785433"/>
     <stop offset="0.0666667" stop-opacity="1" stop-color="#755333"/>
     <stop offset="0.211765" stop-opacity="1" stop-color="#F2CF4E"/>
     <stop offset="0.521569" stop-opacity="1" stop-color="#F8F283"/>
     <stop offset="0.929412" stop-opacity="1" stop-color="#B87E3C"/>
     <stop offset="1" stop-opacity="1" stop-color="#715133"/>
    </linearGradient>
    <linearGradient id="id26" gradientUnits="userSpaceOnUse" x1="938.88" y1="90.98" x2="831.38" y2="567.27">
     <stop offset="0" stop-opacity="1" stop-color="#785433"/>
     <stop offset="0.0666667" stop-opacity="1" stop-color="#755333"/>
     <stop offset="0.211765" stop-opacity="1" stop-color="#F2CF4E"/>
     <stop offset="0.521569" stop-opacity="1" stop-color="#F8F283"/>
     <stop offset="0.929412" stop-opacity="1" stop-color="#B87E3C"/>
     <stop offset="1" stop-opacity="1" stop-color="#715133"/>
    </linearGradient>
   <linearGradient id="id27" gradientUnits="userSpaceOnUse" x1="777.88" y1="-194.03" x2="565.6" y2="748.98">
    <stop offset="0" stop-opacity="1" stop-color="#785433"/>
    <stop offset="0.0666667" stop-opacity="1" stop-color="#755333"/>
    <stop offset="0.211765" stop-opacity="1" stop-color="#F2CF4E"/>
    <stop offset="0.521569" stop-opacity="1" stop-color="#F8F283"/>
    <stop offset="0.929412" stop-opacity="1" stop-color="#B87E3C"/>
    <stop offset="1" stop-opacity="1" stop-color="#715133"/>
   </linearGradient>
   <linearGradient id="id28" gradientUnits="userSpaceOnUse" x1="778.59" y1="-194.03" x2="565.76" y2="748.98">
    <stop offset="0" stop-opacity="1" stop-color="#785433"/>
    <stop offset="0.0666667" stop-opacity="1" stop-color="#755333"/>
    <stop offset="0.211765" stop-opacity="1" stop-color="#F2CF4E"/>
    <stop offset="0.521569" stop-opacity="1" stop-color="#F8F283"/>
    <stop offset="0.929412" stop-opacity="1" stop-color="#B87E3C"/>
    <stop offset="1" stop-opacity="1" stop-color="#715133"/>
   </linearGradient>
   <linearGradient id="id29" gradientUnits="userSpaceOnUse" x1="778.59" y1="-194.03" x2="565.76" y2="748.98">
    <stop offset="0" stop-opacity="1" stop-color="#785433"/>
    <stop offset="0.0666667" stop-opacity="1" stop-color="#755333"/>
    <stop offset="0.211765" stop-opacity="1" stop-color="#F2CF4E"/>
    <stop offset="0.521569" stop-opacity="1" stop-color="#F8F283"/>
    <stop offset="0.929412" stop-opacity="1" stop-color="#B87E3C"/>
    <stop offset="1" stop-opacity="1" stop-color="#715133"/>
   </linearGradient>
   <linearGradient id="id30" gradientUnits="userSpaceOnUse" x1="778.59" y1="-194.03" x2="565.76" y2="748.98">
    <stop offset="0" stop-opacity="1" stop-color="#785433"/>
    <stop offset="0.0666667" stop-opacity="1" stop-color="#755333"/>
    <stop offset="0.211765" stop-opacity="1" stop-color="#F2CF4E"/>
    <stop offset="0.521569" stop-opacity="1" stop-color="#F8F283"/>
    <stop offset="0.929412" stop-opacity="1" stop-color="#B87E3C"/>
    <stop offset="1" stop-opacity="1" stop-color="#715133"/>
   </linearGradient>
   <linearGradient id="id31" gradientUnits="userSpaceOnUse" x1="778.59" y1="-194.03" x2="565.76" y2="748.98">
    <stop offset="0" stop-opacity="1" stop-color="#785433"/>
    <stop offset="0.0666667" stop-opacity="1" stop-color="#755333"/>
    <stop offset="0.211765" stop-opacity="1" stop-color="#F2CF4E"/>
    <stop offset="0.521569" stop-opacity="1" stop-color="#F8F283"/>
    <stop offset="0.929412" stop-opacity="1" stop-color="#B87E3C"/>
    <stop offset="1" stop-opacity="1" stop-color="#715133"/>
   </linearGradient>
   <linearGradient id="id32" gradientUnits="userSpaceOnUse" x1="778.59" y1="-194.03" x2="565.76" y2="748.98">
    <stop offset="0" stop-opacity="1" stop-color="#785433"/>
    <stop offset="0.0666667" stop-opacity="1" stop-color="#755333"/>
    <stop offset="0.211765" stop-opacity="1" stop-color="#F2CF4E"/>
    <stop offset="0.521569" stop-opacity="1" stop-color="#F8F283"/>
    <stop offset="0.929412" stop-opacity="1" stop-color="#B87E3C"/>
    <stop offset="1" stop-opacity="1" stop-color="#715133"/>
   </linearGradient>
   <linearGradient id="id33" gradientUnits="userSpaceOnUse" x1="778.59" y1="-194.03" x2="565.76" y2="748.98">
    <stop offset="0" stop-opacity="1" stop-color="#785433"/>
    <stop offset="0.0666667" stop-opacity="1" stop-color="#755333"/>
    <stop offset="0.211765" stop-opacity="1" stop-color="#F2CF4E"/>
    <stop offset="0.521569" stop-opacity="1" stop-color="#F8F283"/>
    <stop offset="0.929412" stop-opacity="1" stop-color="#B87E3C"/>
    <stop offset="1" stop-opacity="1" stop-color="#715133"/>
   </linearGradient>
   <linearGradient id="id34" gradientUnits="userSpaceOnUse" x1="778.59" y1="-194.03" x2="565.76" y2="748.98">
    <stop offset="0" stop-opacity="1" stop-color="#785433"/>
    <stop offset="0.0666667" stop-opacity="1" stop-color="#755333"/>
    <stop offset="0.211765" stop-opacity="1" stop-color="#F2CF4E"/>
    <stop offset="0.521569" stop-opacity="1" stop-color="#F8F283"/>
    <stop offset="0.929412" stop-opacity="1" stop-color="#B87E3C"/>
    <stop offset="1" stop-opacity="1" stop-color="#715133"/>
   </linearGradient>
   <linearGradient id="id35" gradientUnits="userSpaceOnUse" x1="778.59" y1="-194.03" x2="565.76" y2="748.98">
    <stop offset="0" stop-opacity="1" stop-color="#785433"/>
    <stop offset="0.0666667" stop-opacity="1" stop-color="#755333"/>
    <stop offset="0.211765" stop-opacity="1" stop-color="#F2CF4E"/>
    <stop offset="0.521569" stop-opacity="1" stop-color="#F8F283"/>
    <stop offset="0.929412" stop-opacity="1" stop-color="#B87E3C"/>
    <stop offset="1" stop-opacity="1" stop-color="#715133"/>
   </linearGradient>
 </defs>
 <g id="Layer_x0020_1">
  <metadata id="CorelCorpID_0Corel-Layer"/>
  <g id="_105553334926624">
   <path fill="#333E6B" fill-rule="nonzero" d="M442.98 288.51c0,4.19 -2.96,7.16 -7.16,7.16l-16.73 0c-4.19,0 -7.16,-2.92 -7.16,-7.16l0 -23.26 7.48 0 0 22.75c0,0.87 0.32,1.1 1.09,1.1l13.87 0c0.86,0 1.14,-0.23 1.14,-1.1l0 -22.75 7.47 0 0 23.26z"/>
   <path fill="#333E6B" fill-rule="nonzero" d="M472.01 273.69c0,-1.28 -0.36,-1.87 -1.77,-1.87l-13.13 0 0 6.2 13.13 0c1.27,0 1.77,-0.64 1.77,-1.73l0 -2.6zm7.48 4.38c0,4.51 -2.74,6.52 -6.52,6.52l-2.1 0 11.95 11.08 -9.66 0 -12.05 -11.08 -4 0 0 11.08 -7.48 0 0 -30.42 23.34 0c4.19,0 6.52,2.33 6.52,6.52l0 6.3z"/>
   <path fill="#333E6B" fill-rule="nonzero" d="M508.52 284.9c0,-1.27 -0.36,-1.91 -1.78,-1.91l-13.59 0 0 6.25 13.59 0c1.28,0 1.78,-0.6 1.78,-1.69l0 -2.65zm-0.46 -11.3c0,-1.28 -0.36,-1.92 -1.77,-1.92l-13.14 0 0 5.56 13.14 0c1.27,0 1.77,-0.59 1.77,-1.68l0 -1.96zm7.94 15.22c0,4.02 -1.73,6.85 -6.89,6.85l-23.43 0 0 -30.42 22.38 0c5.39,0 7.48,3.01 7.48,6.71l0 3.28c0,2.19 -0.91,3.28 -1.82,3.97 -0.55,0.36 -1.14,0.59 -1.78,0.68 0.73,0.13 1.41,0.41 2.01,0.78 1.04,0.68 2.05,1.91 2.05,4.23l0 3.92z"/>
   <path fill="#333E6B" fill-rule="nonzero" d="M536.19 272.82l-5.57 11.31 11.08 0 -5.51 -11.31zm10.94 22.84l-2.64 -5.24 -16.56 0 -2.64 5.24 -7.98 0 15.82 -30.4 6.61 0 15.55 30.4 -8.16 0z"/>
   <polygon fill="#333E6B" fill-rule="nonzero" points="582.73,295.66 564.35,275.69 564.35,295.66 557.51,295.66 557.51,265.25 564.4,265.25 582.73,285.27 582.73,265.25 589.61,265.25 589.61,295.66 "/>
   <path fill="#333E6B" fill-rule="nonzero" d="M617.22 289.1l16.41 0c0.87,0 1.05,-0.27 1.05,-1.05l0 -15.04c0,-0.92 -0.27,-1.19 -1.18,-1.19l-16.28 0 0 17.28zm24.94 -0.59c0,4.24 -2.96,7.15 -7.16,7.15l-25.25 0 0 -30.41 25.25 0c4.2,0 7.16,2.79 7.16,7.16l0 16.1z"/>
   <polygon fill="#333E6B" fill-rule="nonzero" points="648.8,295.66 648.8,265.25 676.8,265.25 676.8,271.82 656.28,271.82 656.28,277.06 669.78,277.06 669.78,283.49 656.28,283.49 656.28,289.1 677.12,289.1 677.12,295.66 "/>
   <polygon fill="#333E6B" fill-rule="nonzero" points="698.81,295.66 692.52,295.66 678.06,265.25 686.73,265.25 696.21,287.14 705.92,265.25 714.04,265.25 "/>
   <polygon fill="#333E6B" fill-rule="nonzero" points="716.44,295.66 716.44,265.25 744.44,265.25 744.44,271.82 723.92,271.82 723.92,277.06 737.42,277.06 737.42,283.49 723.92,283.49 723.92,289.1 744.76,289.1 744.76,295.66 "/>
   <polygon fill="#333E6B" fill-rule="nonzero" points="750.26,295.66 750.26,265.25 757.74,265.25 757.74,289.1 777.25,289.1 777.25,295.66 "/>
   <path fill="#333E6B" fill-rule="nonzero" d="M788.46 271.82c-0.91,0 -1.19,0.27 -1.19,1.19l0 15.04c0,0.78 0.18,1.05 1.05,1.05l15.36 0c0.87,0 1.06,-0.27 1.06,-1.05l0 -15.04c0,-0.92 -0.28,-1.19 -1.19,-1.19l-15.09 0zm23.76 16.69c0,4.24 -2.97,7.15 -7.16,7.15l-18.1 0c-4.24,0 -7.16,-2.91 -7.16,-7.15l0 -16.1c0,-4.37 2.78,-7.15 7.16,-7.15l18.1 0c4.19,0 7.16,2.78 7.16,7.15l0 16.1z"/>
   <path fill="#333E6B" fill-rule="nonzero" d="M841.25 273.73c0,-1.27 -0.37,-1.91 -1.78,-1.91l-13.14 0 0 7.38 13.14 0c1.27,0 1.78,-0.59 1.78,-1.68l0 -3.79zm7.47 5.52c0,4.52 -2.73,6.52 -6.52,6.52l-15.87 0 0 9.89 -7.47 0 0 -30.41 23.34 0c4.2,0 6.52,2.33 6.52,6.53l0 7.47z"/>
   <polygon fill="#333E6B" fill-rule="nonzero" points="884.13,295.66 884.13,277.2 873.06,292.29 861.47,277.38 861.47,295.66 854,295.66 854,265.25 860.98,265.25 872.87,281.08 884.68,265.25 891.34,265.25 891.34,295.66 "/>
   <polygon fill="#333E6B" fill-rule="nonzero" points="898.3,295.66 898.3,265.25 926.29,265.25 926.29,271.82 905.78,271.82 905.78,277.06 919.28,277.06 919.28,283.49 905.78,283.49 905.78,289.1 926.61,289.1 926.61,295.66 "/>
   <polygon fill="#333E6B" fill-rule="nonzero" points="957.29,295.66 938.91,275.69 938.91,295.66 932.07,295.66 932.07,265.25 938.96,265.25 957.29,285.27 957.29,265.25 964.17,265.25 964.17,295.66 "/>
   <polygon fill="#333E6B" fill-rule="nonzero" points="987.09,271.82 987.09,295.66 979.62,295.66 979.62,271.82 967.07,271.82 967.07,265.26 999.63,265.26 999.63,271.82 "/>
   <polygon fill="#333E6B" fill-rule="nonzero" points="1014.85,280.85 1032.81,280.85 1032.81,287.05 1014.85,287.05 "/>
   <polygon fill="#333E6B" fill-rule="nonzero" points="1059.47,295.66 1051.99,295.66 1051.99,265.25 1059.47,265.25 "/>
   <polygon fill="#333E6B" fill-rule="nonzero" points="1091.61,295.66 1073.23,275.69 1073.23,295.66 1066.39,295.66 1066.39,265.25 1073.27,265.25 1091.61,285.27 1091.61,265.25 1098.49,265.25 1098.49,295.66 "/>
   <polygon fill="#333E6B" fill-rule="nonzero" points="1121.6,295.66 1115.3,295.66 1100.85,265.25 1109.51,265.25 1118.99,287.14 1128.71,265.25 1136.82,265.25 "/>
   <polygon fill="#333E6B" fill-rule="nonzero" points="1139.23,295.66 1139.23,265.25 1167.22,265.25 1167.22,271.82 1146.7,271.82 1146.7,277.06 1160.2,277.06 1160.2,283.49 1146.7,283.49 1146.7,289.1 1167.54,289.1 1167.54,295.66 "/>
   <path fill="#333E6B" fill-rule="nonzero" d="M1202.55 288.51c0,4.38 -1.64,7.16 -7.16,7.16l-16.5 0c-4.89,0 -7.12,-2.74 -7.12,-6.89l0 -1.32 7.48 -1.19 0 2.83 14.81 0c0.87,0 1.01,-0.37 1.01,-1.05l0 -3.24c0,-0.77 -0.27,-1.09 -1.14,-1.09l-14.5 0c-5.11,0 -6.98,-2.92 -6.98,-6.66l0 -4.65c0,-5.51 2.46,-7.16 7.16,-7.16l15.59 0c5.79,0 7.35,2.64 7.35,6.8l0 1.18 -7.48 1.23 0 -2.64 -14 0c-0.73,0 -1.14,0.18 -1.14,1.14l0 3.14c0,0.69 0.18,1.01 1.05,1.01l14.5 0c5.06,0 7.07,2.82 7.07,6.84l0 4.56z"/>
   <polygon fill="#333E6B" fill-rule="nonzero" points="1224.51,271.82 1224.51,295.66 1217.03,295.66 1217.03,271.82 1204.49,271.82 1204.49,265.26 1237.05,265.26 1237.05,271.82 "/>
   <polygon fill="#333E6B" fill-rule="nonzero" points="1270.19,295.66 1270.19,277.2 1259.1,292.29 1247.52,277.38 1247.52,295.66 1240.05,295.66 1240.05,265.25 1247.02,265.25 1258.92,281.08 1270.73,265.25 1277.39,265.25 1277.39,295.66 "/>
   <polygon fill="#333E6B" fill-rule="nonzero" points="1284.35,295.66 1284.35,265.25 1312.35,265.25 1312.35,271.82 1291.83,271.82 1291.83,277.06 1305.32,277.06 1305.32,283.49 1291.83,283.49 1291.83,289.1 1312.66,289.1 1312.66,295.66 "/>
   <polygon fill="#333E6B" fill-rule="nonzero" points="1343.34,295.66 1324.96,275.69 1324.96,295.66 1318.12,295.66 1318.12,265.25 1325.01,265.25 1343.34,285.27 1343.34,265.25 1350.22,265.25 1350.22,295.66 "/>
   <polygon fill="#333E6B" fill-rule="nonzero" points="1373.14,271.82 1373.14,295.66 1365.66,295.66 1365.66,271.82 1353.13,271.82 1353.13,265.26 1385.68,265.26 1385.68,271.82 "/>
  </g>
  <g id="_105553334896288">
   <path fill="url(#id0)" d="M442.02 288.5l0 -22.29 -5.55 0 0 21.8c0,1.38 -0.69,2.05 -2.1,2.05l0 0 -13.87 0c-1.69,0 -2.05,-1.12 -2.05,-2.05l0 0 0 -21.8 -5.55 0 0 22.29c0,3.71 2.49,6.2 6.19,6.2l0 0 16.73 0c3.65,0 6.2,-2.55 6.2,-6.2z"/>
   <path fill="url(#id1)" d="M472.97 266.21l-22.38 0 0 28.49 5.55 0 0 -11.08 5.35 0 12.04 11.08 6.84 0 -11.94 -11.08 4.54 0c2.54,0 5.56,-0.96 5.56,-5.55l0 0 0 -6.3c0,-3.69 -1.87,-5.56 -5.56,-5.56zm-16.83 4.65l14.1 0c2.74,0 2.74,2.13 2.74,2.83l0 0 0 2.6c0,1.71 -1.01,2.69 -2.74,2.69l0 0 -14.1 0 0 -8.12z"/>
   <path fill="url(#id2)" d="M508.07 266.21l-21.43 0 0 28.49 22.47 0c4.1,0 5.93,-1.81 5.93,-5.87l0 0 0 -3.93c0,-1.59 -0.53,-2.72 -1.59,-3.41l0 0c-0.51,-0.32 -1.1,-0.55 -1.69,-0.66l0 0 0.05 -1.89c0.49,-0.07 0.94,-0.25 1.33,-0.51l0 0c0.67,-0.49 1.44,-1.31 1.44,-3.19l0 0 0 -3.29c0,-2.62 -1.13,-5.74 -6.51,-5.74zm-15.88 4.51l14.1 0c2.74,0 2.74,2.16 2.74,2.88l0 0 0 1.96c0,1.68 -1,2.64 -2.74,2.64l0 0 -14.1 0 0 -7.48zm0 11.3l14.55 0c2.75,0 2.75,2.17 2.75,2.88l0 0 0 2.65c0,1.68 -1.01,2.65 -2.75,2.65l0 0 -14.55 0 0 -8.18z"/>
   <path fill="url(#id3)" d="M539.15 266.21l-5.44 0 -14.81 28.49 5.79 0 2.65 -5.24 17.73 0 2.65 5.24 6 0 -14.57 -28.49zm-2.96 4.43l7.05 14.45 -14.16 0 7.11 -14.45z"/>
   <polygon fill="url(#id4)" points="588.65,266.21 583.69,266.21 583.69,287.74 563.98,266.21 558.48,266.21 558.48,294.7 563.39,294.7 563.39,273.23 583.15,294.7 588.65,294.7 "/>
   <path fill="url(#id5)" d="M635 266.21l-24.29 0 0 28.49 24.29 0c3.71,0 6.2,-2.49 6.2,-6.2l0 0 0 -16.09c0,-3.77 -2.43,-6.2 -6.2,-6.2zm-18.74 4.65l17.24 0c1.44,0 2.15,0.7 2.15,2.15l0 0 0 15.04c0,1.35 -0.67,2.01 -2.01,2.01l0 0 -17.38 0 0 -19.2z"/>
   <polygon fill="url(#id6)" points="675.84,266.21 649.77,266.21 649.77,294.7 676.16,294.7 676.16,290.06 655.32,290.06 655.32,282.53 668.81,282.53 668.81,278.02 655.32,278.02 655.32,270.86 675.84,270.86 "/>
   <polygon fill="url(#id7)" points="712.48,266.21 706.55,266.21 696.2,289.53 686.09,266.21 679.59,266.21 693.12,294.7 698.21,294.7 "/>
   <polygon fill="url(#id8)" points="743.8,294.7 743.8,290.06 722.96,290.06 722.96,282.53 736.46,282.53 736.46,278.02 722.96,278.02 722.96,270.86 743.48,270.86 743.48,266.21 717.4,266.21 717.4,294.7 "/>
   <polygon fill="url(#id9)" points="776.29,294.7 776.29,290.06 756.78,290.06 756.78,266.21 751.22,266.21 751.22,294.7 "/>
   <path fill="url(#id10)" d="M811.25 288.5l0 -16.09c0,-3.77 -2.43,-6.2 -6.19,-6.2l-18.1 0c-3.83,0 -6.2,2.38 -6.2,6.2l0 0 0 16.09c0,3.71 2.49,6.2 6.2,6.2l0 0 18.1 0c3.7,0 6.19,-2.49 6.19,-6.2zm-24.94 -0.45l0 -15.04c0,-1.45 0.71,-2.15 2.15,-2.15l0 0 15.09 0c1.44,0 2.15,0.7 2.15,2.15l0 0 0 15.04c0,1.35 -0.66,2.01 -2.01,2.01l0 0 -15.37 0c-1.35,0 -2.01,-0.66 -2.01,-2.01l0 0z"/>
   <path fill="url(#id11)" d="M842.2 266.21l-22.38 0 0 28.49 5.55 0 0 -9.9 16.83 0c2.53,0 5.56,-0.96 5.56,-5.55l0 0 0 -7.48c0,-3.69 -1.87,-5.56 -5.56,-5.56zm-16.83 4.65l14.1 0c2.74,0 2.74,2.16 2.74,2.87l0 0 0 3.79c0,1.68 -1,2.65 -2.74,2.65l0 0 -14.1 0 0 -9.31z"/>
   <polygon fill="url(#id12)" points="890.38,266.21 885.16,266.21 872.88,282.68 860.5,266.21 854.96,266.21 854.96,294.7 860.51,294.7 860.51,274.57 873.04,290.7 885.1,274.26 885.1,294.7 890.38,294.7 "/>
   <polygon fill="url(#id13)" points="925.65,294.7 925.65,290.06 904.81,290.06 904.81,282.53 918.31,282.53 918.31,278.02 904.81,278.02 904.81,270.86 925.33,270.86 925.33,266.21 899.26,266.21 899.26,294.7 "/>
   <polygon fill="url(#id14)" points="963.21,266.21 958.25,266.21 958.25,287.74 938.53,266.21 933.04,266.21 933.04,294.7 937.95,294.7 937.95,273.23 957.71,294.7 963.21,294.7 "/>
   <polygon fill="url(#id15)" points="998.67,270.86 998.67,266.21 968.04,266.21 968.04,270.86 980.58,270.86 980.58,294.7 986.13,294.7 986.13,270.86 "/>
   <polygon fill="url(#id16)" points="1031.85,286.08 1031.85,281.81 1015.8,281.81 1015.8,286.08 "/>
   <polygon fill="url(#id17)" points="1058.51,294.7 1058.51,266.22 1052.95,266.22 1052.95,294.7 "/>
   <polygon fill="url(#id18)" points="1097.53,266.21 1092.57,266.21 1092.57,287.74 1072.85,266.21 1067.35,266.21 1067.35,294.7 1072.27,294.7 1072.27,273.23 1092.03,294.7 1097.53,294.7 "/>
   <polygon fill="url(#id19)" points="1135.26,266.21 1129.33,266.21 1118.99,289.53 1108.88,266.21 1102.37,266.21 1115.91,294.7 1121,294.7 "/>
   <polygon fill="url(#id20)" points="1166.26,266.21 1140.19,266.21 1140.19,294.7 1166.58,294.7 1166.58,290.06 1145.74,290.06 1145.74,282.53 1159.24,282.53 1159.24,278.02 1145.74,278.02 1145.74,270.86 1166.26,270.86 "/>
   <path fill="url(#id21)" d="M1201.59 288.5l0 -4.55c0,-3.96 -2,-5.88 -6.11,-5.88l0 0 -14.5 0c-0.92,0 -2.01,-0.34 -2.01,-1.97l0 0 0 -3.14c0,-0.96 0.36,-2.1 2.1,-2.1l0 0 14.96 0 0 2.47 5.56 -0.91 0 -0.37c0,-3.6 -1.07,-5.84 -6.39,-5.84l-15.59 0c-4.57,0 -6.19,1.62 -6.19,6.2l0 0 0 4.65c0,3.78 2.02,5.69 6.01,5.69l0 0 14.5 0c1.37,0 2.1,0.72 2.1,2.06l0 0 0 3.24c0,1.34 -0.66,2.01 -1.96,2.01l0 0 -15.79 0 0 -2.66 -5.55 0.87 0 0.51c0,3.93 2.07,5.92 6.15,5.92l0 0 16.51 0c4.46,0 6.2,-1.73 6.2,-6.2z"/>
   <polygon fill="url(#id22)" points="1236.09,266.21 1205.45,266.21 1205.45,270.86 1218,270.86 1218,294.7 1223.55,294.7 1223.55,270.86 1236.09,270.86 "/>
   <polygon fill="url(#id23)" points="1276.42,266.21 1271.21,266.21 1258.92,282.68 1246.54,266.21 1241.01,266.21 1241.01,294.7 1246.57,294.7 1246.57,274.57 1259.08,290.7 1271.15,274.26 1271.15,294.7 1276.42,294.7 "/>
   <polygon fill="url(#id24)" points="1311.7,294.7 1311.7,290.06 1290.86,290.06 1290.86,282.53 1304.36,282.53 1304.36,278.02 1290.86,278.02 1290.86,270.86 1311.39,270.86 1311.39,266.21 1285.31,266.21 1285.31,294.7 "/>
   <polygon fill="url(#id25)" points="1349.26,266.21 1344.3,266.21 1344.3,287.74 1324.58,266.21 1319.08,266.21 1319.08,294.7 1324,294.7 1324,273.23 1343.75,294.7 1349.26,294.7 "/>
   <polygon fill="url(#id26)" points="1384.72,266.21 1354.09,266.21 1354.09,270.86 1366.62,270.86 1366.62,294.7 1372.18,294.7 1372.18,270.86 1384.72,270.86 "/>
  </g>
  <g id="_105553335155264">
   <path fill="#333E6B" fill-rule="nonzero" d="M499.91 114.37l-17.59 35.76c-2.36,4.8 1.13,10.41 6.48,10.41l35.04 0c5.34,0 8.83,-5.59 6.49,-10.39l-17.45 -35.76c-2.63,-5.4 -10.31,-5.41 -12.97,-0.02zm61.99 102.79l-9.89 -19.6c-1.23,-2.43 -3.72,-3.97 -6.45,-3.97l-78.04 0c-2.73,0 -5.22,1.54 -6.45,3.97l-9.89 19.6c-1.22,2.43 -3.72,3.97 -6.44,3.97l-25.57 0c-5.42,0 -8.91,-5.75 -6.41,-10.56l75.59 -145.3c1.24,-2.39 3.71,-3.88 6.41,-3.88l25.92 0c2.72,0 5.2,1.51 6.43,3.93l74.29 145.3c2.46,4.8 -1.03,10.51 -6.43,10.51l-26.63 0c-2.72,0 -5.21,-1.54 -6.44,-3.97z"/>
   <path fill="#333E6B" fill-rule="nonzero" d="M733.21 98.51c22.99,0 32.81,12.45 32.81,30.65l0 84.74c0,4 -3.23,7.23 -7.22,7.23l-22.91 0c-3.99,0 -7.23,-3.23 -7.23,-7.23l0 -77.08c0,-4.54 -1.68,-5.75 -5.75,-5.75l-42.83 0c-3.99,0 -7.22,3.24 -7.22,7.23l0 75.6c0,4 -3.23,7.23 -7.22,7.23l-22.92 0c-3.99,0 -7.22,-3.23 -7.22,-7.23l0 -108.17c0,-3.99 3.23,-7.22 7.22,-7.22l90.49 0z"/>
   <path fill="#333E6B" fill-rule="nonzero" d="M1004.83 105.93c0,-6.71 -1.92,-10.06 -9.34,-10.06l-61.75 0c-3.99,0 -7.22,3.24 -7.22,7.22l0 24.36c0,3.99 3.23,7.22 7.22,7.22l61.75 0c6.7,0 9.34,-3.11 9.34,-8.87l0 -19.87zm39.28 28.98c0,23.71 -14.38,34.24 -34.25,34.24l-76.12 0c-3.99,0 -7.22,3.24 -7.22,7.23l0 37.53c0,3.98 -3.24,7.22 -7.23,7.22l-24.83 0c-3.99,0 -7.23,-3.24 -7.23,-7.22l0 -145.3c0,-3.99 3.24,-7.22 7.23,-7.22l108.18 0c22.9,0 41.47,18.56 41.47,41.47l0 32.05z"/>
   <path fill="#333E6B" fill-rule="nonzero" d="M1123.36 92.11c0,4.42 3.94,7.89 8.3,7.13 2.94,-0.52 6.41,-0.73 10.86,-0.73l42.63 0c19.16,0 31.38,11.25 31.38,29.45l0 85.95c0,3.98 -3.24,7.21 -7.23,7.21l-22.91 0c-3.99,0 -7.23,-3.23 -7.23,-7.21l0 -77.57c0,-3.58 -1.92,-5.26 -5.74,-5.26l-37.84 0c-2.49,0 -4.54,0.15 -6.24,0.43 -3.47,0.59 -5.98,3.61 -5.98,7.14l0 75.26c0,3.98 -3.23,7.21 -7.22,7.21l-22.91 0c-3.99,0 -7.23,-3.23 -7.23,-7.21l0 -158.82c0,-3.55 2.58,-6.57 6.09,-7.13l22.91 -3.67c4.39,-0.71 8.36,2.68 8.36,7.13l0 40.69z"/>
   <path fill="#333E6B" fill-rule="nonzero" d="M1287.48 221.13c-22.99,0 -32.81,-12.46 -32.81,-30.66l0 -84.74c0,-3.99 3.24,-7.22 7.22,-7.22l22.93 0c3.99,0 7.22,3.23 7.22,7.22l0 77.08c0,4.54 1.67,5.75 5.74,5.75l43.32 0c3.98,0 7.22,-3.23 7.22,-7.22l0 -75.61c0,-3.99 3.23,-7.22 7.22,-7.22l22.92 0c3.99,0 7.22,3.23 7.22,7.22l0 108.17c0,3.99 -3.23,7.23 -7.22,7.23l-90.98 0z"/>
  </g>
  <g id="_105553335145344">
   <path fill="#333E6B" fill-rule="nonzero" d="M288.07 265.28l-46.58 0c-2.57,0 -4.95,-1.37 -6.23,-3.59l-13.63 -23.59c-1.4,-2.42 -4.37,-3.42 -6.97,-2.35 -11.62,4.8 -24.37,7.43 -37.72,7.43 -13.36,0 -26.11,-2.63 -37.73,-7.43 -2.6,-1.07 -5.57,-0.07 -6.98,2.35l-13.62 23.59c-1.28,2.22 -3.66,3.59 -6.23,3.59l-46.58 0c-7.33,0 -11.91,-7.93 -8.25,-14.28l33.27 -57.63 52.5 -90.92 28.79 -49.87c2.15,-3.72 7.51,-3.72 9.66,0l81.28 140.79 33.27 57.63c3.66,6.35 -0.92,14.28 -8.25,14.28zm-111.13 -265.28c-97.72,0 -176.94,79.22 -176.94,176.94 0,97.72 79.22,176.93 176.94,176.93 97.72,0 176.93,-79.21 176.93,-176.93 0,-97.72 -79.21,-176.94 -176.93,-176.94z"/>
   <path fill="#333E6B" fill-rule="nonzero" d="M193.48 154.74l-33.09 0c-3.07,0 -5.57,2.49 -5.57,5.57l0 33.09c0,3.08 2.5,5.58 5.57,5.58l33.09 0c3.08,0 5.58,-2.5 5.58,-5.58l0 -33.09c0,-3.08 -2.5,-5.57 -5.58,-5.57z"/>
  </g>
  <path fill="url(#id27)" d="M520.68 63.66l-25.92 0c-1.86,0 -3.54,1.01 -4.39,2.66l0 0 -75.59 145.3c-0.81,1.55 -0.75,3.36 0.15,4.85l0 0c0.91,1.5 2.49,2.38 4.24,2.38l0 0 25.56 0c1.89,0 3.58,-1.03 4.43,-2.72l0 0 9.88 -19.59c1.63,-3.23 4.87,-5.22 8.48,-5.22l0 0 78.04 0c3.6,0 6.85,1.99 8.48,5.22l0 0 9.89 19.59c0.84,1.69 2.54,2.72 4.41,2.72l0 0 26.63 0c1.73,0 3.31,-0.88 4.22,-2.36l0 0c0.91,-1.49 0.98,-3.29 0.19,-4.84l0 0 -74.29 -145.3c-0.85,-1.66 -2.54,-2.69 -4.41,-2.69zm-39.94 94.67c-1.74,-2.8 -1.91,-6.24 -0.45,-9.2l0 0 17.59 -35.77c1.61,-3.27 4.87,-5.3 8.51,-5.3l0 0c3.67,0 6.93,2.04 8.54,5.33l0 0 17.45 35.76c1.44,2.96 1.26,6.4 -0.49,9.19l0 0c-1.75,2.8 -4.75,4.47 -8.05,4.47l0 0 -35.04 0c-3.3,0 -6.31,-1.67 -8.06,-4.48l0 0z"/>
  <path fill="url(#id28)" d="M642.72 218.85l22.92 0c2.73,0 4.95,-2.21 4.95,-4.95l0 0 0 -75.6c0,-5.23 4.26,-9.5 9.49,-9.5l0 0 42.83 0c5.55,0 8.02,2.48 8.02,8.02l0 0 0 77.08c0,2.74 2.23,4.95 4.96,4.95l22.91 0c2.73,0 4.95,-2.21 4.95,-4.95l0 0 0 -84.74c0,-18.57 -10.56,-28.38 -30.54,-28.38l0 0 -90.49 0c-2.73,0 -4.95,2.22 -4.95,4.95l0 108.17c0,2.74 2.22,4.95 4.95,4.95z"/>
  <path fill="url(#id29)" d="M1041.84 134.91l0 -32.06c0,-21.61 -17.59,-39.19 -39.2,-39.19l-108.18 0c-2.73,0 -4.96,2.21 -4.96,4.95l0 0 0 145.29c0,2.74 2.23,4.95 4.96,4.95l0 0 24.83 0c2.74,0 4.96,-2.21 4.96,-4.95l0 0 0 -37.53c0,-5.23 4.25,-9.49 9.49,-9.49l0 0 76.12 0c20.62,0 31.98,-11.35 31.98,-31.97zm-117.59 -7.46l0 -24.36c0,-5.23 4.25,-9.49 9.49,-9.49l0 0 61.75 0c10.23,0 11.6,6.23 11.6,12.33l0 0 0 19.88c0,7.28 -4.01,11.13 -11.6,11.13l0 0 -61.75 0c-5.24,0 -9.49,-4.26 -9.49,-9.49l0 0z"/>
  <path fill="url(#id30)" d="M1093.23 218.85l22.9 0c2.74,0 4.96,-2.21 4.96,-4.95l0 0 0 -75.25c0,-4.66 3.31,-8.61 7.87,-9.37l0 0c1.88,-0.33 4.04,-0.48 6.62,-0.48l0 0 37.84 0c5.1,0 8.02,2.75 8.02,7.54l0 0 0 77.56c0,2.74 2.22,4.95 4.95,4.95l22.92 0c2.73,0 4.95,-2.21 4.95,-4.95l0 0 0 -85.94c0,-16.77 -11.16,-27.18 -29.11,-27.18l0 0 -42.63 0c-4.43,0 -7.74,0.22 -10.47,0.69l0 0c-0.54,0.1 -1.07,0.15 -1.6,0.15l0 0c-5.16,0 -9.36,-4.27 -9.36,-9.51l0 0 0 -40.69c0,-2.74 -2.22,-4.96 -4.94,-4.96l0 0c-0.26,0 -0.53,0.03 -0.79,0.07l0 0 -22.92 3.67c-2.42,0.38 -4.17,2.44 -4.17,4.88l0 158.82c0,2.74 2.22,4.95 4.96,4.95z"/>
  <path fill="url(#id31)" d="M1287.49 218.85l90.97 0c2.73,0 4.95,-2.21 4.95,-4.95l0 -108.17c0,-2.73 -2.22,-4.95 -4.95,-4.95l0 0 -22.92 0c-2.73,0 -4.95,2.22 -4.95,4.95l0 0 0 75.61c0,5.23 -4.26,9.49 -9.49,9.49l0 0 -43.32 0c-5.54,0 -8.01,-2.47 -8.01,-8.02l0 0 0 -77.08c0,-2.73 -2.22,-4.95 -4.95,-4.95l0 0 -22.92 0c-2.74,0 -4.96,2.22 -4.96,4.95l0 0 0 84.74c0,18.57 10.56,28.38 30.55,28.38z"/>
  <path fill="url(#id32)" d="M2.27 176.93c0,96.31 78.36,174.67 174.67,174.67 96.31,0 174.66,-78.36 174.66,-174.67 0,-96.3 -78.35,-174.66 -174.66,-174.66l0 0c-96.31,0 -174.67,78.36 -174.67,174.66zm53.31 84.72c-2.13,-3.69 -2.12,-8.1 0,-11.79l0 0 114.56 -198.42c1.42,-2.45 3.96,-3.92 6.79,-3.92l0 0c2.84,0 5.39,1.47 6.8,3.92l0 0 114.55 198.42c2.13,3.69 2.13,8.1 0,11.79l0 0c-2.13,3.7 -5.95,5.91 -10.21,5.91l0 0 -46.58 0c-3.38,0 -6.52,-1.82 -8.2,-4.74l0 0 -13.63 -23.58c-0.58,-1.01 -1.67,-1.65 -2.84,-1.65l0 0c-0.45,0 -0.88,0.1 -1.29,0.26l0 0c-12.21,5.04 -25.2,7.6 -38.6,7.6l0 0c-13.39,0 -26.38,-2.56 -38.59,-7.6l0 0c-0.41,-0.16 -0.84,-0.26 -1.29,-0.26l0 0c-1.16,0 -2.27,0.64 -2.84,1.64l0 0 -13.63 23.59c-1.68,2.92 -4.83,4.74 -8.2,4.74l0 0 -46.58 0c-4.26,0 -8.08,-2.21 -10.22,-5.91l0 0z"/>
  <path fill="url(#id33)" d="M2.27 176.93c0,96.31 78.36,174.67 174.67,174.67 96.31,0 174.66,-78.36 174.66,-174.67 0,-96.3 -78.35,-174.66 -174.66,-174.66l0 0c-96.31,0 -174.67,78.36 -174.67,174.66zm53.31 84.72c-2.13,-3.69 -2.12,-8.1 0,-11.79l0 0 114.56 -198.42c1.42,-2.45 3.96,-3.92 6.79,-3.92l0 0c2.84,0 5.39,1.47 6.8,3.92l0 0 114.55 198.42c2.13,3.69 2.13,8.1 0,11.79l0 0c-2.13,3.7 -5.95,5.91 -10.21,5.91l0 0 -46.58 0c-3.38,0 -6.52,-1.82 -8.2,-4.74l0 0 -13.63 -23.58c-0.58,-1.01 -1.67,-1.65 -2.84,-1.65l0 0c-0.45,0 -0.88,0.1 -1.29,0.26l0 0c-12.21,5.04 -25.2,7.6 -38.6,7.6l0 0c-13.39,0 -26.38,-2.56 -38.59,-7.6l0 0c-0.41,-0.16 -0.84,-0.26 -1.29,-0.26l0 0c-1.16,0 -2.27,0.64 -2.84,1.64l0 0 -13.63 23.59c-1.68,2.92 -4.83,4.74 -8.2,4.74l0 0 -46.58 0c-4.26,0 -8.08,-2.21 -10.22,-5.91l0 0z"/>
  <path fill="url(#id34)" d="M196.79 193.4l0 -33.09c0,-1.82 -1.48,-3.3 -3.31,-3.3l-33.09 0c-1.82,0 -3.3,1.48 -3.3,3.3l0 0 0 33.09c0,1.83 1.48,3.3 3.3,3.3l0 0 33.09 0c1.83,0 3.31,-1.47 3.31,-3.3z"/>
  <path fill="url(#id35)" d="M196.79 193.4l0 -33.09c0,-1.82 -1.48,-3.3 -3.31,-3.3l-33.09 0c-1.82,0 -3.3,1.48 -3.3,3.3l0 0 0 33.09c0,1.83 1.48,3.3 3.3,3.3l0 0 33.09 0c1.83,0 3.31,-1.47 3.31,-3.3z"/>
 </g>
</svg>
