<svg width="66" height="20" viewBox="0 0 66 20" fill="none" xmlns="http://www.w3.org/2000/svg">
<path d="M38 0.293945H1.29412C0.431373 0.293945 0 0.725318 0 1.58806C0.411866 1.58806 0.806862 1.79258 1.0981 2.15662C1.38933 2.52066 1.55294 3.01441 1.55294 3.52924C1.55294 4.04407 1.38933 4.53782 1.0981 4.90186C0.806862 5.2659 0.411866 5.47042 0 5.47042L0 5.90136C0.411866 5.90136 0.806862 6.10587 1.0981 6.46991C1.38933 6.83396 1.55294 7.3277 1.55294 7.84253C1.55294 8.35737 1.38933 8.85111 1.0981 9.21515C0.806862 9.57919 0.411866 9.78371 0 9.78371L0 10.2147C0.411866 10.2147 0.806862 10.4192 1.0981 10.7832C1.38933 11.1473 1.55294 11.641 1.55294 12.1558C1.55294 12.6707 1.38933 13.1644 1.0981 13.5284C0.806862 13.8925 0.411866 14.097 0 14.097L0 14.5279C0.411866 14.5279 0.806862 14.7325 1.0981 15.0965C1.38933 15.4605 1.55294 15.9543 1.55294 16.4691C1.55294 16.984 1.38933 17.4777 1.0981 17.8417C0.806862 18.2058 0.411866 18.4103 0 18.4103C0 19.273 0.431373 19.7044 1.29412 19.7044H38" fill="#FB923C"/>
<path d="M38 19.7044L64.7059 19.7046C65.5686 19.7046 66 19.2732 66 18.4105C65.5881 18.4105 65.1931 18.206 64.9019 17.8419C64.6107 17.4779 64.4471 16.9841 64.4471 16.4693C64.4471 15.9545 64.6107 15.4607 64.9019 15.0967C65.1931 14.7326 65.5881 14.5281 66 14.5281V14.0972C65.5881 14.0972 65.1931 13.8927 64.9019 13.5286C64.6107 13.1646 64.4471 12.6708 64.4471 12.156C64.4471 11.6412 64.6107 11.1474 64.9019 10.7834C65.1931 10.4193 65.5881 10.2148 66 10.2148V9.78388C65.5881 9.78388 65.1931 9.57937 64.9019 9.21533C64.6107 8.85129 64.4471 8.35754 64.4471 7.84271C64.4471 7.32787 64.6107 6.83413 64.9019 6.47009C65.1931 6.10605 65.5881 5.90153 66 5.90153V5.47059C65.5881 5.47059 65.1931 5.26607 64.9019 4.90203C64.6107 4.53799 64.4471 4.04425 64.4471 3.52941C64.4471 3.01458 64.6107 2.52083 64.9019 2.15679C65.1931 1.79275 65.5881 1.58824 66 1.58824C66 0.725493 65.5686 0.294119 64.7059 0.294119L38 0.293945" fill="#FB923C"/>
</svg>
